<svg xmlns="http://www.w3.org/2000/svg" xmlns:xlink="http://www.w3.org/1999/xlink" width="1920.112" height="1080.188" viewBox="0 0 1920.112 1080.188">
  <defs>
    <linearGradient id="linear-gradient" x1="4.623" y1="8.381" x2="-0.461" y2="-1.562" gradientUnits="objectBoundingBox">
      <stop offset="0" stop-color="#52bbe8"/>
      <stop offset="0.196" stop-color="#68c3ea"/>
      <stop offset="0.604" stop-color="#a2d8f1"/>
      <stop offset="1" stop-color="#e1eff8"/>
    </linearGradient>
    <linearGradient id="linear-gradient-2" x1="4.329" y1="7.806" x2="-0.755" y2="-2.137" xlink:href="#linear-gradient"/>
    <linearGradient id="linear-gradient-3" x1="4.035" y1="7.23" x2="-1.049" y2="-2.713" xlink:href="#linear-gradient"/>
    <linearGradient id="linear-gradient-4" x1="4.341" y1="6.821" x2="-1.897" y2="-3.122" xlink:href="#linear-gradient"/>
    <linearGradient id="linear-gradient-5" x1="3.806" y1="4.921" x2="-1.278" y2="-1.878" xlink:href="#linear-gradient"/>
    <linearGradient id="linear-gradient-6" x1="3.512" y1="4.527" x2="-1.572" y2="-2.271" xlink:href="#linear-gradient"/>
    <linearGradient id="linear-gradient-7" x1="9.514" y1="5.082" x2="-6.509" y2="-3.236" xlink:href="#linear-gradient"/>
    <linearGradient id="linear-gradient-8" x1="3.266" y1="4.198" x2="-1.819" y2="-2.6" xlink:href="#linear-gradient"/>
    <linearGradient id="linear-gradient-9" x1="3.595" y1="3.827" x2="-2.642" y2="-2.971" xlink:href="#linear-gradient"/>
    <linearGradient id="linear-gradient-10" x1="2.725" y1="3.475" x2="-2.359" y2="-3.323" xlink:href="#linear-gradient"/>
    <linearGradient id="linear-gradient-11" x1="7.034" y1="3.795" x2="-8.988" y2="-4.523" xlink:href="#linear-gradient"/>
    <linearGradient id="linear-gradient-12" x1="40.529" y1="62.305" x2="-8.431" y2="-13.289" xlink:href="#linear-gradient"/>
    <linearGradient id="linear-gradient-13" x1="39.705" y1="61.044" x2="-11.9" y2="-18.649" xlink:href="#linear-gradient"/>
    <linearGradient id="linear-gradient-14" x1="58.144" y1="89.501" x2="-23.622" y2="-36.744" xlink:href="#linear-gradient"/>
    <linearGradient id="linear-gradient-15" x1="28.356" y1="43.509" x2="-18.918" y2="-29.481" xlink:href="#linear-gradient"/>
    <linearGradient id="linear-gradient-16" x1="26.32" y1="40.367" x2="-13.775" y2="-21.541" xlink:href="#linear-gradient"/>
    <linearGradient id="linear-gradient-17" x1="47.395" y1="72.905" x2="-14.078" y2="-22.008" xlink:href="#linear-gradient"/>
    <linearGradient id="linear-gradient-18" x1="54.012" y1="83.123" x2="-22.233" y2="-34.6" xlink:href="#linear-gradient"/>
    <linearGradient id="linear-gradient-19" x1="46.55" y1="71.601" x2="-24.612" y2="-38.273" xlink:href="#linear-gradient"/>
    <linearGradient id="linear-gradient-20" x1="30.168" y1="46.308" x2="-25.013" y2="-38.891" xlink:href="#linear-gradient"/>
    <linearGradient id="linear-gradient-21" x1="31.715" y1="48.696" x2="-16.058" y2="-25.066" xlink:href="#linear-gradient"/>
    <linearGradient id="linear-gradient-22" x1="28.04" y1="43.029" x2="-17.962" y2="-28.01" xlink:href="#linear-gradient"/>
    <linearGradient id="linear-gradient-23" x1="37.982" y1="58.371" x2="-38.146" y2="-59.17" xlink:href="#linear-gradient"/>
    <linearGradient id="linear-gradient-24" x1="32.484" y1="49.873" x2="-25.979" y2="-40.376" xlink:href="#linear-gradient"/>
    <linearGradient id="linear-gradient-25" x1="33.128" y1="50.877" x2="-21.66" y2="-33.716" xlink:href="#linear-gradient"/>
    <linearGradient id="linear-gradient-26" x1="19.37" y1="29.635" x2="-19.202" y2="-29.92" xlink:href="#linear-gradient"/>
    <linearGradient id="linear-gradient-27" x1="30.17" y1="46.299" x2="-38.119" y2="-59.113" xlink:href="#linear-gradient"/>
    <linearGradient id="linear-gradient-28" x1="21.581" y1="33.049" x2="-17.4" y2="-27.138" xlink:href="#linear-gradient"/>
    <linearGradient id="linear-gradient-29" x1="28.45" y1="43.656" x2="-54.345" y2="-84.18" xlink:href="#linear-gradient"/>
    <linearGradient id="linear-gradient-30" x1="31.758" y1="48.762" x2="-39.16" y2="-60.734" xlink:href="#linear-gradient"/>
    <linearGradient id="linear-gradient-31" x1="14.52" y1="22.147" x2="-21.798" y2="-33.929" xlink:href="#linear-gradient"/>
    <linearGradient id="linear-gradient-32" x1="26.067" y1="39.986" x2="-40.707" y2="-63.14" xlink:href="#linear-gradient"/>
    <linearGradient id="linear-gradient-33" x1="13.71" y1="20.892" x2="-33.516" y2="-52.011" xlink:href="#linear-gradient"/>
    <linearGradient id="linear-gradient-34" x1="7.808" y1="6.176" x2="-1.114" y2="-0.622" xlink:href="#linear-gradient"/>
    <linearGradient id="linear-gradient-35" x1="54.532" y1="9.629" x2="-16.057" y2="-2.256" xlink:href="#linear-gradient"/>
    <linearGradient id="linear-gradient-36" x1="4.244" y1="5.506" x2="-0.84" y2="-1.292" xlink:href="#linear-gradient"/>
    <linearGradient id="linear-gradient-37" x1="3.95" y1="5.113" x2="-1.134" y2="-1.685" xlink:href="#linear-gradient"/>
    <linearGradient id="linear-gradient-38" x1="6.427" y1="5.124" x2="-2.495" y2="-1.675" xlink:href="#linear-gradient"/>
    <linearGradient id="linear-gradient-39" x1="3.704" y1="4.784" x2="-1.381" y2="-2.015" xlink:href="#linear-gradient"/>
    <linearGradient id="linear-gradient-40" x1="3.409" y1="4.39" x2="-1.675" y2="-2.408" xlink:href="#linear-gradient"/>
    <linearGradient id="linear-gradient-41" x1="43.607" y1="7.789" x2="-26.982" y2="-4.096" xlink:href="#linear-gradient"/>
    <linearGradient id="linear-gradient-42" x1="3.457" y1="4.454" x2="-1.627" y2="-2.344" xlink:href="#linear-gradient"/>
    <linearGradient id="linear-gradient-43" x1="3.163" y1="4.061" x2="-1.921" y2="-2.738" xlink:href="#linear-gradient"/>
    <linearGradient id="linear-gradient-44" x1="2.869" y1="3.667" x2="-2.216" y2="-3.131" xlink:href="#linear-gradient"/>
    <linearGradient id="linear-gradient-45" x1="5.474" y1="9.938" x2="-3.448" y2="-7.232" xlink:href="#linear-gradient"/>
    <linearGradient id="linear-gradient-46" x1="3.01" y1="9.292" x2="-2.074" y2="-7.878" xlink:href="#linear-gradient"/>
    <linearGradient id="linear-gradient-47" x1="2.716" y1="8.298" x2="-2.369" y2="-8.872" xlink:href="#linear-gradient"/>
    <linearGradient id="linear-gradient-48" x1="2.421" y1="7.305" x2="-2.663" y2="-9.866" xlink:href="#linear-gradient"/>
    <linearGradient id="linear-gradient-49" x1="65.966" y1="101.55" x2="-12.009" y2="-18.808" xlink:href="#linear-gradient"/>
    <linearGradient id="linear-gradient-50" x1="36.308" y1="55.788" x2="-3.732" y2="-6.034" xlink:href="#linear-gradient"/>
    <linearGradient id="linear-gradient-51" x1="37.644" y1="57.849" x2="-9.493" y2="-14.93" xlink:href="#linear-gradient"/>
    <linearGradient id="linear-gradient-52" x1="72.942" y1="112.351" x2="-26.277" y2="-40.844" xlink:href="#linear-gradient"/>
    <linearGradient id="linear-gradient-53" x1="35.134" y1="53.975" x2="-16.146" y2="-25.201" xlink:href="#linear-gradient"/>
    <linearGradient id="linear-gradient-54" x1="45.571" y1="70.09" x2="-15.373" y2="-24.008" xlink:href="#linear-gradient"/>
    <linearGradient id="linear-gradient-55" x1="70.79" y1="109.028" x2="-18.057" y2="-28.153" xlink:href="#linear-gradient"/>
    <linearGradient id="linear-gradient-56" x1="80.054" y1="123.331" x2="-28.439" y2="-44.182" xlink:href="#linear-gradient"/>
    <linearGradient id="linear-gradient-57" x1="40.932" y1="62.927" x2="-23.559" y2="-36.647" xlink:href="#linear-gradient"/>
    <linearGradient id="linear-gradient-58" x1="31.013" y1="47.612" x2="-13.749" y2="-21.5" xlink:href="#linear-gradient"/>
    <linearGradient id="linear-gradient-59" x1="46.635" y1="71.732" x2="-20.734" y2="-32.285" xlink:href="#linear-gradient"/>
    <linearGradient id="linear-gradient-60" x1="26.566" y1="40.746" x2="-14.598" y2="-22.811" xlink:href="#linear-gradient"/>
    <linearGradient id="linear-gradient-61" x1="25.086" y1="38.461" x2="-14.327" y2="-22.393" xlink:href="#linear-gradient"/>
    <linearGradient id="linear-gradient-62" x1="61.482" y1="94.619" x2="-45.678" y2="-70.772" xlink:href="#linear-gradient"/>
    <linearGradient id="linear-gradient-63" x1="25.222" y1="38.671" x2="-28.202" y2="-43.815" xlink:href="#linear-gradient"/>
    <linearGradient id="linear-gradient-64" x1="18.586" y1="28.425" x2="-16.364" y2="-25.538" xlink:href="#linear-gradient"/>
    <linearGradient id="linear-gradient-65" x1="22.174" y1="32.028" x2="-11.933" y2="-17.517" xlink:href="#linear-gradient"/>
    <linearGradient id="linear-gradient-66" x1="39.901" y1="61.335" x2="-34.434" y2="-53.438" xlink:href="#linear-gradient"/>
    <linearGradient id="linear-gradient-67" x1="20.328" y1="31.115" x2="-17.303" y2="-26.988" xlink:href="#linear-gradient"/>
    <linearGradient id="linear-gradient-68" x1="31.241" y1="47.964" x2="-21.898" y2="-34.083" xlink:href="#linear-gradient"/>
    <linearGradient id="linear-gradient-69" x1="27.355" y1="41.965" x2="-19.321" y2="-30.103" xlink:href="#linear-gradient"/>
    <linearGradient id="linear-gradient-70" x1="21.748" y1="33.312" x2="-19.065" y2="-29.712" xlink:href="#linear-gradient"/>
    <linearGradient id="linear-gradient-71" x1="22.013" y1="33.716" x2="-29.912" y2="-46.456" xlink:href="#linear-gradient"/>
    <linearGradient id="linear-gradient-72" x1="20.718" y1="31.717" x2="-28.455" y2="-44.206" xlink:href="#linear-gradient"/>
    <linearGradient id="linear-gradient-73" x1="58.439" y1="89.957" x2="-40.639" y2="-63.018" xlink:href="#linear-gradient"/>
    <linearGradient id="linear-gradient-74" x1="19.094" y1="29.214" x2="-20.286" y2="-31.598" xlink:href="#linear-gradient"/>
    <linearGradient id="linear-gradient-75" x1="41.768" y1="64.218" x2="-46.217" y2="-71.631" xlink:href="#linear-gradient"/>
    <linearGradient id="linear-gradient-76" x1="24.22" y1="37.123" x2="-42.328" y2="-65.625" xlink:href="#linear-gradient"/>
  </defs>
  <g id="Group_3842" data-name="Group 3842" transform="translate(-0.337 0)">
    <g id="Group_337" data-name="Group 337" transform="translate(-42.535 -478.433)" opacity="0.5">
      <g id="Group_305" data-name="Group 305" transform="translate(1547.63 478.433)">
        <path id="Path_6440" data-name="Path 6440" d="M309.387-34.721V19.715L255.239,50.977,201.091,19.715V-34.721h-.472v54.71l54.5,31.467.118.068,54.5-31.467.118-.068v-54.71Z" transform="translate(-200.618 34.721)" fill="url(#linear-gradient)"/>
      </g>
      <g id="Group_306" data-name="Group 306" transform="translate(1656.399 478.433)">
        <path id="Path_6441" data-name="Path 6441" d="M363.657-34.721V19.715L309.508,50.977,255.36,19.715V-34.721h-.473v54.71l54.5,31.467.118.068,54.5-31.467.118-.068v-54.71Z" transform="translate(-254.887 34.721)" fill="url(#linear-gradient-2)"/>
      </g>
      <g id="Group_307" data-name="Group 307" transform="translate(1765.168 478.433)">
        <path id="Path_6442" data-name="Path 6442" d="M417.925-34.721V19.715L363.777,50.977,309.629,19.715V-34.721h-.472v54.71l54.5,31.467.118.068,54.5-31.467.118-.068v-54.71Z" transform="translate(-309.156 34.721)" fill="url(#linear-gradient-3)"/>
      </g>
      <g id="Group_308" data-name="Group 308" transform="translate(1873.937 478.433)">
        <path id="Path_6443" data-name="Path 6443" d="M363.9,19.715V-34.721h-.472v54.71l54.5,31.467.118.068,34.429-19.877V31.1L418.044,50.977Z" transform="translate(-363.425 34.721)" fill="url(#linear-gradient-4)"/>
      </g>
      <g id="Group_309" data-name="Group 309" transform="translate(1710.784 532.733)">
        <path id="Path_6444" data-name="Path 6444" d="M336.642,118.511l-.118-.068-54.5-31.467V23.906l.118-.068,54.5-31.467.118.068,54.5,31.467v63.07l-.118.07ZM282.493,86.7l54.149,31.262L390.791,86.7V24.179L336.642-7.082l-54.149,31.26Z" transform="translate(-282.022 7.629)" fill="url(#linear-gradient-5)"/>
      </g>
      <g id="Group_310" data-name="Group 310" transform="translate(1819.553 532.733)">
        <path id="Path_6445" data-name="Path 6445" d="M390.911,118.511l-.118-.068-54.5-31.467V23.906l.118-.068,54.5-31.467.118.068,54.5,31.467v63.07l-.118.07ZM336.762,86.7l54.149,31.262L445.058,86.7V24.179L390.911-7.082l-54.149,31.26Z" transform="translate(-336.291 7.629)" fill="url(#linear-gradient-6)"/>
      </g>
      <g id="Group_311" data-name="Group 311" transform="translate(1928.32 544.255)">
        <path id="Path_6446" data-name="Path 6446" d="M425.223,100.672,391.031,80.931V18.406L425.223-1.335V-1.88L390.677,18.065l-.118.068V81.2l34.664,20.013Z" transform="translate(-390.559 1.88)" fill="url(#linear-gradient-7)"/>
      </g>
      <g id="Group_312" data-name="Group 312" transform="translate(1765.167 626.93)">
        <path id="Path_6447" data-name="Path 6447" d="M363.776,165.511l-.116-.07-54.5-31.465V70.9l.118-.068,54.5-31.467.118.068L418.4,70.9v63.072l-.118.068ZM309.629,133.7l54.147,31.263L417.925,133.7V71.177l-54.149-31.26-54.147,31.26Z" transform="translate(-309.156 -39.369)" fill="url(#linear-gradient-8)"/>
      </g>
      <g id="Group_313" data-name="Group 313" transform="translate(1873.937 626.93)">
        <path id="Path_6448" data-name="Path 6448" d="M452.472,145.087l-34.429,19.877L363.9,133.7V71.177l54.146-31.262,34.429,19.877v-.546l-34.31-19.809-.118-.068-54.5,31.467-.118.068v63.071l54.5,31.467.118.068,34.429-19.877Z" transform="translate(-363.425 -39.369)" fill="url(#linear-gradient-9)"/>
      </g>
      <g id="Group_315" data-name="Group 315" transform="translate(1819.553 721.126)">
        <path id="Path_6450" data-name="Path 6450" d="M390.911,212.509l-.118-.07-54.5-31.465V117.9l.118-.068,54.5-31.467.118.068,54.5,31.467v63.072l-.118.068ZM336.762,180.7l54.149,31.262L445.058,180.7V118.175l-54.147-31.26-54.149,31.26Z" transform="translate(-336.291 -86.367)" fill="url(#linear-gradient-10)"/>
      </g>
      <g id="Group_316" data-name="Group 316" transform="translate(1928.32 732.648)">
        <path id="Path_6451" data-name="Path 6451" d="M425.223,194.668l-34.192-19.741V112.4l34.192-19.741v-.546l-34.547,19.945-.118.068V175.2l34.664,20.013Z" transform="translate(-390.559 -92.116)" fill="url(#linear-gradient-11)"/>
      </g>
      <circle id="Ellipse_74" data-name="Ellipse 74" cx="5.672" cy="5.672" r="5.672" transform="translate(1542.194 527.334)" fill="url(#linear-gradient-12)"/>
      <path id="Path_6494" data-name="Path 6494" d="M257.7.584A5.381,5.381,0,0,0,263.083-4.8a5.381,5.381,0,0,0-5.381-5.379A5.381,5.381,0,0,0,252.32-4.8,5.381,5.381,0,0,0,257.7.584Z" transform="translate(1398.933 537.803)" fill="url(#linear-gradient-13)"/>
      <circle id="Ellipse_75" data-name="Ellipse 75" cx="3.396" cy="3.396" r="3.396" transform="translate(1707.622 561.009)" fill="url(#linear-gradient-14)"/>
      <path id="Path_6495" data-name="Path 6495" d="M393.62,16.991a5.874,5.874,0,1,0-5.875-5.874A5.874,5.874,0,0,0,393.62,16.991Z" transform="translate(1534.936 553.288)" fill="url(#linear-gradient-15)"/>
      <circle id="Ellipse_76" data-name="Ellipse 76" cx="6.926" cy="6.926" r="6.926" transform="translate(1867.246 526.08)" fill="url(#linear-gradient-16)"/>
      <path id="Path_6496" data-name="Path 6496" d="M234.652,10.437a4.518,4.518,0,1,0-4.518,4.518A4.517,4.517,0,0,0,234.652,10.437Z" transform="translate(1372.116 553.968)" fill="url(#linear-gradient-17)"/>
      <circle id="Ellipse_77" data-name="Ellipse 77" cx="3.642" cy="3.642" r="3.642" transform="translate(1761.761 529.364)" fill="url(#linear-gradient-18)"/>
      <circle id="Ellipse_78" data-name="Ellipse 78" cx="3.902" cy="3.902" r="3.902" transform="translate(1815.885 560.503)" fill="url(#linear-gradient-19)"/>
      <path id="Path_6497" data-name="Path 6497" d="M393.2,36.994a5.033,5.033,0,1,0,5.033,5.033A5.032,5.032,0,0,0,393.2,36.994Z" transform="translate(1535.358 585.176)" fill="url(#linear-gradient-20)"/>
      <circle id="Ellipse_79" data-name="Ellipse 79" cx="5.813" cy="5.813" r="5.813" transform="translate(1705.206 621.39)" fill="url(#linear-gradient-21)"/>
      <path id="Path_6499" data-name="Path 6499" d="M306.262,58.195A6.037,6.037,0,1,0,312.3,52.16,6.035,6.035,0,0,0,306.262,58.195Z" transform="translate(1453.105 600.406)" fill="url(#linear-gradient-22)"/>
      <circle id="Ellipse_80" data-name="Ellipse 80" cx="3.648" cy="3.648" r="3.648" transform="translate(1816.14 749.15)" fill="url(#linear-gradient-23)"/>
      <path id="Path_6500" data-name="Path 6500" d="M311.654,84.133a4.751,4.751,0,1,0,4.75,4.75A4.75,4.75,0,0,0,311.654,84.133Z" transform="translate(1453.75 632.516)" fill="url(#linear-gradient-24)"/>
      <circle id="Ellipse_81" data-name="Ellipse 81" cx="5.069" cy="5.069" r="5.069" transform="translate(1814.719 622.134)" fill="url(#linear-gradient-25)"/>
      <circle id="Ellipse_82" data-name="Ellipse 82" cx="7.2" cy="7.2" r="7.2" transform="translate(1866.972 714.2)" fill="url(#linear-gradient-26)"/>
      <path id="Path_6501" data-name="Path 6501" d="M392.715,108.275a4.068,4.068,0,1,0-4.067-4.069A4.069,4.069,0,0,0,392.715,108.275Z" transform="translate(1535.842 648.591)" fill="url(#linear-gradient-27)"/>
      <path id="Path_6502" data-name="Path 6502" d="M367.111,65.865a7.124,7.124,0,1,0-7.123-7.125A7.126,7.126,0,0,0,367.111,65.865Z" transform="translate(1507.06 599.861)" fill="url(#linear-gradient-28)"/>
      <path id="Path_6511" data-name="Path 6511" d="M338.088,194.492a3.354,3.354,0,1,0,3.355,3.355A3.354,3.354,0,0,0,338.088,194.492Z" transform="translate(1481.699 743.345)" fill="url(#linear-gradient-29)"/>
      <circle id="Ellipse_87" data-name="Ellipse 87" cx="3.916" cy="3.916" r="3.916" transform="translate(1815.872 811.68)" fill="url(#linear-gradient-30)"/>
      <circle id="Ellipse_88" data-name="Ellipse 88" cx="7.646" cy="7.646" r="7.646" transform="translate(1866.526 839.348)" fill="url(#linear-gradient-31)"/>
      <path id="Path_6512" data-name="Path 6512" d="M392.761,139.743a4.158,4.158,0,1,0-4.159-4.157A4.158,4.158,0,0,0,392.761,139.743Z" transform="translate(1535.796 680.011)" fill="url(#linear-gradient-32)"/>
      <path id="Path_6517" data-name="Path 6517" d="M393.624,204.994a5.882,5.882,0,1,0-5.881-5.88A5.882,5.882,0,0,0,393.624,204.994Z" transform="translate(1534.933 742.078)" fill="url(#linear-gradient-33)"/>
    </g>
    <g id="Group_336" data-name="Group 336" transform="translate(-1149 41.238)" opacity="0.5">
      <g id="Group_314" data-name="Group 314" transform="translate(1149.337 695.96)">
        <path id="Path_6449" data-name="Path 6449" d="M-13.917,86.422l-.095-.055-6.134,3.542v.439l6.134-3.542,43.521,25.127v50.255l-43.521,25.127-6.134-3.542v.439l6.039,3.487.095.055,43.806-25.292.095-.055V111.714Z" transform="translate(20.146 -86.367)" fill="url(#linear-gradient-34)"/>
      </g>
      <g id="Group_317" data-name="Group 317" transform="translate(1149.337 793.367)">
        <path id="Path_6452" data-name="Path 6452" d="M-20.146,146.833v.439L-14.2,150.7v50.255l-5.944,3.432v.439l6.229-3.6.1-.055V150.484Z" transform="translate(20.146 -146.833)" fill="url(#linear-gradient-35)"/>
      </g>
      <g id="Group_318" data-name="Group 318" transform="translate(1155.281 771.671)">
        <path id="Path_6453" data-name="Path 6453" d="M27.444,234.754l-.093-.055-43.807-25.292v-50.7l.1-.055,43.805-25.292.1.055,43.808,25.292v50.7l-.1.055Zm-43.52-25.567,43.52,25.128,43.523-25.128V158.931L27.444,133.8l-43.52,25.126Z" transform="translate(16.456 -133.365)" fill="url(#linear-gradient-36)"/>
      </g>
      <g id="Group_319" data-name="Group 319" transform="translate(1242.705 771.671)">
        <path id="Path_6454" data-name="Path 6454" d="M81.714,234.754l-.1-.055L37.812,209.407v-50.7l.1-.055,43.807-25.292.1.055,43.808,25.292v50.7l-.1.055ZM38.192,209.186l43.522,25.128,43.523-25.128V158.931L81.714,133.8,38.192,158.931Z" transform="translate(-37.812 -133.365)" fill="url(#linear-gradient-37)"/>
      </g>
      <g id="Group_321" data-name="Group 321" transform="translate(1149.337 847.383)">
        <path id="Path_6456" data-name="Path 6456" d="M-13.917,180.418l-.095-.055-6.134,3.542v.439l6.134-3.542,43.521,25.127v50.255l-43.521,25.127-6.134-3.541v.439l6.039,3.487.095.055,43.806-25.292.095-.055V205.71Z" transform="translate(20.146 -180.363)" fill="url(#linear-gradient-38)"/>
      </g>
      <g id="Group_322" data-name="Group 322" transform="translate(1198.993 847.383)">
        <path id="Path_6457" data-name="Path 6457" d="M54.58,281.752l-.1-.055L10.678,256.4v-50.7l.1-.055L54.58,180.363l.1.055L98.481,205.71v50.7l-.1.055ZM11.057,256.184,54.58,281.312,98.1,256.184V205.929L54.58,180.8,11.057,205.929Z" transform="translate(-10.678 -180.363)" fill="url(#linear-gradient-39)"/>
      </g>
      <g id="Group_323" data-name="Group 323" transform="translate(1286.417 847.383)">
        <path id="Path_6458" data-name="Path 6458" d="M108.849,281.752l-.1-.055L64.946,256.4v-50.7l.1-.055,43.808-25.292.1.055,43.807,25.292v50.7l-.1.055ZM65.326,256.184l43.523,25.128,43.522-25.128V205.929L108.849,180.8,65.326,205.929Z" transform="translate(-64.946 -180.363)" fill="url(#linear-gradient-40)"/>
      </g>
      <g id="Group_324" data-name="Group 324" transform="translate(1149.337 944.791)">
        <path id="Path_6459" data-name="Path 6459" d="M-20.146,240.829v.439L-14.2,244.7v50.255l-5.944,3.432v.439l6.229-3.6.1-.055V244.48Z" transform="translate(20.146 -240.829)" fill="url(#linear-gradient-41)"/>
      </g>
      <g id="Group_325" data-name="Group 325" transform="translate(1155.281 923.094)">
        <path id="Path_6460" data-name="Path 6460" d="M27.444,328.75l-.093-.055L-16.456,303.4v-50.7l.1-.055,43.805-25.292.1.055,43.808,25.292v50.7l-.1.055Zm-43.52-25.566,43.52,25.126,43.523-25.126V252.928L27.444,227.8l-43.52,25.128Z" transform="translate(16.456 -227.361)" fill="url(#linear-gradient-42)"/>
      </g>
      <g id="Group_326" data-name="Group 326" transform="translate(1242.705 923.094)">
        <path id="Path_6461" data-name="Path 6461" d="M81.714,328.75l-.1-.055L37.812,303.4v-50.7l.1-.055,43.807-25.292.1.055,43.808,25.292v50.7l-.1.055ZM38.192,303.184,81.714,328.31l43.523-25.126V252.928L81.714,227.8,38.192,252.928Z" transform="translate(-37.812 -227.361)" fill="url(#linear-gradient-43)"/>
      </g>
      <g id="Group_327" data-name="Group 327" transform="translate(1330.13 923.094)">
        <path id="Path_6462" data-name="Path 6462" d="M135.983,328.75l-.1-.055L92.081,303.4v-50.7l.1-.055,43.807-25.292.1.055,43.807,25.292v50.7l-.1.055ZM92.461,303.184l43.522,25.126,43.523-25.126V252.928L135.983,227.8,92.461,252.928Z" transform="translate(-92.081 -227.361)" fill="url(#linear-gradient-44)"/>
      </g>
      <g id="Group_330" data-name="Group 330" transform="translate(1149.337 998.807)">
        <path id="Path_6465" data-name="Path 6465" d="M-13.917,274.414l-.095-.055-6.134,3.542v.439l6.134-3.542,43.521,25.127V314.5h.38v-14.8Z" transform="translate(20.146 -274.359)" fill="url(#linear-gradient-45)"/>
      </g>
      <g id="Group_331" data-name="Group 331" transform="translate(1198.993 998.807)">
        <path id="Path_6466" data-name="Path 6466" d="M11.057,314.5V299.926L54.58,274.8,98.1,299.926V314.5h.38v-14.8L54.675,274.414l-.1-.055L10.772,299.651l-.095.055v14.8Z" transform="translate(-10.678 -274.359)" fill="url(#linear-gradient-46)"/>
      </g>
      <g id="Group_332" data-name="Group 332" transform="translate(1286.417 998.807)">
        <path id="Path_6467" data-name="Path 6467" d="M65.326,314.5V299.926L108.849,274.8l43.523,25.127V314.5h.38v-14.8l-43.807-25.292-.095-.055L65.041,299.651l-.1.055v14.8Z" transform="translate(-64.946 -274.359)" fill="url(#linear-gradient-47)"/>
      </g>
      <g id="Group_333" data-name="Group 333" transform="translate(1373.842 998.807)">
        <path id="Path_6468" data-name="Path 6468" d="M119.595,314.5V299.926L163.117,274.8l43.522,25.127V314.5h.38v-14.8l-43.807-25.292-.095-.055L119.31,299.651l-.095.055v14.8Z" transform="translate(-119.215 -274.359)" fill="url(#linear-gradient-48)"/>
      </g>
      <path id="Path_6498" data-name="Path 6498" d="M9.019,103.255a2.863,2.863,0,1,0,2.863-2.863A2.863,2.863,0,0,0,9.019,103.255Z" transform="translate(1187.302 618.161)" fill="url(#linear-gradient-49)"/>
      <path id="Path_6503" data-name="Path 6503" d="M-14.223,94.192A5.576,5.576,0,0,0-8.65,88.617a5.575,5.575,0,0,0-5.574-5.574A5.575,5.575,0,0,0-19.8,88.617,5.576,5.576,0,0,0-14.223,94.192Z" transform="translate(1169.695 607.562)" fill="url(#linear-gradient-50)"/>
      <path id="Path_6504" data-name="Path 6504" d="M12.592,140.033A4.735,4.735,0,1,0,7.856,135.3,4.735,4.735,0,0,0,12.592,140.033Z" transform="translate(1186.591 636.594)" fill="url(#linear-gradient-51)"/>
      <path id="Path_6505" data-name="Path 6505" d="M68.167,134.354a2.25,2.25,0,1,0-2.249,2.25A2.249,2.249,0,0,0,68.167,134.354Z" transform="translate(1220.69 637.536)" fill="url(#linear-gradient-52)"/>
      <circle id="Ellipse_83" data-name="Ellipse 83" cx="4.353" cy="4.353" r="4.353" transform="translate(1325.967 792.775)" fill="url(#linear-gradient-53)"/>
      <path id="Path_6507" data-name="Path 6507" d="M-18.612,181.889a3.663,3.663,0,0,0,3.663,3.662,3.662,3.662,0,0,0,3.662-3.662,3.663,3.663,0,0,0-3.662-3.663A3.663,3.663,0,0,0-18.612,181.889Z" transform="translate(1170.42 665.714)" fill="url(#linear-gradient-54)"/>
      <path id="Path_6508" data-name="Path 6508" d="M-12.873,150.119a2.512,2.512,0,0,0-2.511-2.511,2.512,2.512,0,0,0-2.513,2.511,2.512,2.512,0,0,0,2.513,2.513A2.512,2.512,0,0,0-12.873,150.119Z" transform="translate(1170.857 647.008)" fill="url(#linear-gradient-55)"/>
      <circle id="Ellipse_85" data-name="Ellipse 85" cx="2.057" cy="2.057" r="2.057" transform="translate(1240.838 795.071)" fill="url(#linear-gradient-56)"/>
      <path id="Path_6509" data-name="Path 6509" d="M62.916,197.479a3.461,3.461,0,1,0,3.462-3.462A3.461,3.461,0,0,0,62.916,197.479Z" transform="translate(1220.23 675.362)" fill="url(#linear-gradient-57)"/>
      <path id="Path_6510" data-name="Path 6510" d="M39.821,177.4a4.987,4.987,0,1,0,4.988,4.988A4.986,4.986,0,0,0,39.821,177.4Z" transform="translate(1203.074 665.212)" fill="url(#linear-gradient-58)"/>
      <circle id="Ellipse_89" data-name="Ellipse 89" cx="3.313" cy="3.313" r="3.313" transform="translate(1195.87 869.527)" fill="url(#linear-gradient-59)"/>
      <path id="Path_6513" data-name="Path 6513" d="M12.852,234.977a5.422,5.422,0,1,0-5.422-5.422A5.422,5.422,0,0,0,12.852,234.977Z" transform="translate(1186.331 693.761)" fill="url(#linear-gradient-60)"/>
      <circle id="Ellipse_90" data-name="Ellipse 90" cx="5.663" cy="5.663" r="5.663" transform="translate(1324.656 841.94)" fill="url(#linear-gradient-61)"/>
      <path id="Path_6514" data-name="Path 6514" d="M118.04,196.957a2.083,2.083,0,1,0,2.083-2.085A2.083,2.083,0,0,0,118.04,196.957Z" transform="translate(1253.908 675.884)" fill="url(#linear-gradient-62)"/>
      <circle id="Ellipse_91" data-name="Ellipse 91" cx="4.178" cy="4.178" r="4.178" transform="translate(1413.566 944.374)" fill="url(#linear-gradient-63)"/>
      <path id="Path_6515" data-name="Path 6515" d="M121.755,223.533a6.387,6.387,0,1,0,6.387,6.387A6.387,6.387,0,0,0,121.755,223.533Z" transform="translate(1252.277 693.395)" fill="url(#linear-gradient-64)"/>
      <path id="Path_6519" data-name="Path 6519" d="M-14.013,238.846a6.926,6.926,0,0,0-6.133,3.741v6.431a6.929,6.929,0,0,0,6.133,3.741A6.957,6.957,0,0,0-7.057,245.8,6.956,6.956,0,0,0-14.013,238.846Z" transform="translate(1169.483 702.75)" fill="url(#linear-gradient-65)"/>
      <path id="Path_6520" data-name="Path 6520" d="M11.935,294.3a3,3,0,1,0-3-3A3,3,0,0,0,11.935,294.3Z" transform="translate(1187.249 732.963)" fill="url(#linear-gradient-66)"/>
      <path id="Path_6521" data-name="Path 6521" d="M40.18,282.677a5.932,5.932,0,1,0-5.932-5.932A5.932,5.932,0,0,0,40.18,282.677Z" transform="translate(1202.715 722.281)" fill="url(#linear-gradient-67)"/>
      <path id="Path_6522" data-name="Path 6522" d="M39.523,240.556a4.2,4.2,0,1,0,4.2,4.2A4.2,4.2,0,0,0,39.523,240.556Z" transform="translate(1203.372 703.795)" fill="url(#linear-gradient-68)"/>
      <path id="Path_6523" data-name="Path 6523" d="M66.879,234.093a4.782,4.782,0,1,0-4.783-4.781A4.782,4.782,0,0,0,66.879,234.093Z" transform="translate(1219.729 694.003)" fill="url(#linear-gradient-69)"/>
      <path id="Path_6524" data-name="Path 6524" d="M99.742,245.238a5.469,5.469,0,1,0-5.469,5.468A5.469,5.469,0,0,0,99.742,245.238Z" transform="translate(1236.047 703.314)" fill="url(#linear-gradient-70)"/>
      <path id="Path_6525" data-name="Path 6525" d="M120.963,296.091a4.3,4.3,0,1,0-4.3-4.3A4.3,4.3,0,0,0,120.963,296.091Z" transform="translate(1253.068 732.471)" fill="url(#linear-gradient-71)"/>
      <circle id="Ellipse_92" data-name="Ellipse 92" cx="4.539" cy="4.539" r="4.539" transform="translate(1413.205 994.487)" fill="url(#linear-gradient-72)"/>
      <path id="Path_6527" data-name="Path 6527" d="M-15.483,273.1a2.253,2.253,0,0,0-2.254,2.254,2.253,2.253,0,0,0,2.254,2.252,2.252,2.252,0,0,0,2.252-2.252A2.253,2.253,0,0,0-15.483,273.1Z" transform="translate(1170.955 723.676)" fill="url(#linear-gradient-73)"/>
      <path id="Path_6528" data-name="Path 6528" d="M67.215,286.644a5.667,5.667,0,1,0,5.667,5.667A5.668,5.668,0,0,0,67.215,286.644Z" transform="translate(1219.393 731.953)" fill="url(#linear-gradient-74)"/>
      <circle id="Ellipse_94" data-name="Ellipse 94" cx="2.537" cy="2.537" r="2.537" transform="translate(1327.783 996.489)" fill="url(#linear-gradient-75)"/>
      <circle id="Ellipse_95" data-name="Ellipse 95" cx="3.354" cy="3.354" r="3.354" transform="translate(1458.102 1020.909)" fill="url(#linear-gradient-76)"/>
    </g>
  </g>
</svg>
