<svg id="Group_3842" data-name="Group 3842" xmlns="http://www.w3.org/2000/svg" xmlns:xlink="http://www.w3.org/1999/xlink" width="1920" height="1080" viewBox="0 0 1920 1080">
  <defs>
    <linearGradient id="linear-gradient" x1="7.808" y1="6.176" x2="-1.114" y2="-0.622" gradientUnits="objectBoundingBox">
      <stop offset="0" stop-color="#52bbe8"/>
      <stop offset="0.196" stop-color="#68c3ea"/>
      <stop offset="0.604" stop-color="#a2d8f1"/>
      <stop offset="1" stop-color="#e1eff8"/>
    </linearGradient>
    <linearGradient id="linear-gradient-2" x1="4.244" y1="5.506" x2="-0.84" y2="-1.292" xlink:href="#linear-gradient"/>
    <linearGradient id="linear-gradient-3" x1="3.95" y1="5.113" x2="-1.134" y2="-1.686" xlink:href="#linear-gradient"/>
    <linearGradient id="linear-gradient-4" x1="3.656" y1="4.72" x2="-1.429" y2="-2.079" xlink:href="#linear-gradient"/>
    <linearGradient id="linear-gradient-5" x1="6.427" y1="5.124" x2="-2.495" y2="-1.675" xlink:href="#linear-gradient"/>
    <linearGradient id="linear-gradient-6" x1="3.704" y1="4.784" x2="-1.381" y2="-2.015" xlink:href="#linear-gradient"/>
    <linearGradient id="linear-gradient-7" x1="3.409" y1="4.39" x2="-1.675" y2="-2.408" xlink:href="#linear-gradient"/>
    <linearGradient id="linear-gradient-8" x1="4.105" y1="5.321" x2="0.254" y2="0.171" xlink:href="#linear-gradient"/>
    <linearGradient id="linear-gradient-9" x1="6.405" y1="4.94" x2="-0.623" y2="-0.21" xlink:href="#linear-gradient"/>
    <linearGradient id="linear-gradient-10" x1="3.572" y1="4.607" x2="-0.279" y2="-0.542" xlink:href="#linear-gradient"/>
    <linearGradient id="linear-gradient-11" x1="3.329" y1="4.282" x2="-0.523" y2="-0.867" xlink:href="#linear-gradient"/>
    <linearGradient id="linear-gradient-12" x1="4.987" y1="3.901" x2="-2.04" y2="-1.248" xlink:href="#linear-gradient"/>
    <linearGradient id="linear-gradient-13" x1="2.795" y1="3.569" x2="-1.056" y2="-1.581" xlink:href="#linear-gradient"/>
    <linearGradient id="linear-gradient-14" x1="65.965" y1="101.579" x2="-12.009" y2="-18.813" xlink:href="#linear-gradient"/>
    <linearGradient id="linear-gradient-15" x1="37.637" y1="57.84" x2="-9.492" y2="-14.927" xlink:href="#linear-gradient"/>
    <linearGradient id="linear-gradient-16" x1="72.967" y1="112.39" x2="-26.287" y2="-40.859" xlink:href="#linear-gradient"/>
    <linearGradient id="linear-gradient-17" x1="35.134" y1="53.975" x2="-16.146" y2="-25.201" xlink:href="#linear-gradient"/>
    <linearGradient id="linear-gradient-18" x1="36.195" y1="55.602" x2="-16.903" y2="-26.365" xlink:href="#linear-gradient"/>
    <linearGradient id="linear-gradient-19" x1="28.511" y1="43.749" x2="-16.85" y2="-26.288" xlink:href="#linear-gradient"/>
    <linearGradient id="linear-gradient-20" x1="80.054" y1="123.331" x2="-28.439" y2="-44.182" xlink:href="#linear-gradient"/>
    <linearGradient id="linear-gradient-21" x1="40.923" y1="62.913" x2="-23.553" y2="-36.638" xlink:href="#linear-gradient"/>
    <linearGradient id="linear-gradient-22" x1="31.013" y1="47.604" x2="-13.749" y2="-21.497" xlink:href="#linear-gradient"/>
    <linearGradient id="linear-gradient-23" x1="23.977" y1="36.748" x2="-17.507" y2="-27.302" xlink:href="#linear-gradient"/>
    <linearGradient id="linear-gradient-24" x1="46.635" y1="71.732" x2="-20.734" y2="-32.285" xlink:href="#linear-gradient"/>
    <linearGradient id="linear-gradient-25" x1="25.086" y1="38.461" x2="-14.327" y2="-22.394" xlink:href="#linear-gradient"/>
    <linearGradient id="linear-gradient-26" x1="61.482" y1="94.656" x2="-45.678" y2="-70.8" xlink:href="#linear-gradient"/>
    <linearGradient id="linear-gradient-27" x1="47.887" y1="73.677" x2="2.717" y2="3.923" xlink:href="#linear-gradient"/>
    <linearGradient id="linear-gradient-28" x1="76.137" y1="16.008" x2="5.549" y2="1.535" xlink:href="#linear-gradient"/>
    <linearGradient id="linear-gradient-29" x1="5.181" y1="6.76" x2="0.097" y2="-0.039" xlink:href="#linear-gradient"/>
    <linearGradient id="linear-gradient-31" x1="4.887" y1="6.366" x2="-0.197" y2="-0.432" xlink:href="#linear-gradient"/>
    <linearGradient id="linear-gradient-32" x1="4.641" y1="6.037" x2="-0.443" y2="-0.761" xlink:href="#linear-gradient"/>
    <linearGradient id="linear-gradient-33" x1="4.347" y1="5.643" x2="-0.738" y2="-1.155" xlink:href="#linear-gradient"/>
    <linearGradient id="linear-gradient-34" x1="4.052" y1="5.25" x2="-1.032" y2="-1.548" xlink:href="#linear-gradient"/>
    <linearGradient id="linear-gradient-35" x1="3.758" y1="4.857" x2="-1.326" y2="-1.942" xlink:href="#linear-gradient"/>
    <linearGradient id="linear-gradient-36" x1="25.5" y1="7.11" x2="-15.374" y2="-3.778" xlink:href="#linear-gradient"/>
    <linearGradient id="linear-gradient-37" x1="3.512" y1="4.527" x2="-1.572" y2="-2.271" xlink:href="#linear-gradient"/>
    <linearGradient id="linear-gradient-38" x1="5.037" y1="4.181" x2="-3.134" y2="-2.618" xlink:href="#linear-gradient"/>
    <linearGradient id="linear-gradient-39" x1="2.971" y1="3.804" x2="-2.113" y2="-2.994" xlink:href="#linear-gradient"/>
    <linearGradient id="linear-gradient-40" x1="19.174" y1="5.425" x2="-21.7" y2="-5.464" xlink:href="#linear-gradient"/>
    <linearGradient id="linear-gradient-41" x1="3.773" y1="3.128" x2="-4.398" y2="-3.67" xlink:href="#linear-gradient"/>
    <linearGradient id="linear-gradient-42" x1="12.848" y1="3.74" x2="-28.026" y2="-7.149" xlink:href="#linear-gradient"/>
    <linearGradient id="linear-gradient-43" x1="36.625" y1="56.276" x2="-0.407" y2="-0.901" xlink:href="#linear-gradient"/>
    <linearGradient id="linear-gradient-45" x1="55.155" y1="84.887" x2="-4.002" y2="-6.45" xlink:href="#linear-gradient"/>
    <linearGradient id="linear-gradient-47" x1="57.668" y1="88.741" x2="-8.105" y2="-12.782" xlink:href="#linear-gradient"/>
    <linearGradient id="linear-gradient-49" x1="124.611" y1="192.126" x2="-3.029" y2="-4.949" xlink:href="#linear-gradient"/>
    <linearGradient id="linear-gradient-51" x1="59.739" y1="91.965" x2="-4.818" y2="-7.711" xlink:href="#linear-gradient"/>
    <linearGradient id="linear-gradient-52" x1="32.343" y1="49.657" x2="-4.426" y2="-7.104" xlink:href="#linear-gradient"/>
    <linearGradient id="linear-gradient-53" x1="80.264" y1="123.655" x2="-6.959" y2="-11.017" xlink:href="#linear-gradient"/>
    <linearGradient id="linear-gradient-54" x1="41.184" y1="63.316" x2="-6.137" y2="-9.747" xlink:href="#linear-gradient"/>
    <linearGradient id="linear-gradient-55" x1="32.542" y1="49.972" x2="-7.106" y2="-11.243" xlink:href="#linear-gradient"/>
    <linearGradient id="linear-gradient-56" x1="53.394" y1="82.144" x2="-12.568" y2="-19.672" xlink:href="#linear-gradient"/>
    <linearGradient id="linear-gradient-57" x1="69.917" y1="107.68" x2="-22.603" y2="-35.171" xlink:href="#linear-gradient"/>
    <linearGradient id="linear-gradient-58" x1="38.487" y1="59.151" x2="-16.374" y2="-25.553" xlink:href="#linear-gradient"/>
    <linearGradient id="linear-gradient-59" x1="40.524" y1="62.296" x2="-8.43" y2="-13.287" xlink:href="#linear-gradient"/>
    <linearGradient id="linear-gradient-60" x1="78.19" y1="120.452" x2="-17.569" y2="-27.399" xlink:href="#linear-gradient"/>
    <linearGradient id="linear-gradient-61" x1="39.702" y1="61.028" x2="-11.899" y2="-18.644" xlink:href="#linear-gradient"/>
    <linearGradient id="linear-gradient-62" x1="58.143" y1="89.501" x2="-23.622" y2="-36.744" xlink:href="#linear-gradient"/>
    <linearGradient id="linear-gradient-63" x1="26.826" y1="41.147" x2="-8.115" y2="-12.802" xlink:href="#linear-gradient"/>
    <linearGradient id="linear-gradient-64" x1="33.271" y1="51.098" x2="-13.843" y2="-21.646" xlink:href="#linear-gradient"/>
    <linearGradient id="linear-gradient-65" x1="28.354" y1="43.507" x2="-18.917" y2="-29.48" xlink:href="#linear-gradient"/>
    <linearGradient id="linear-gradient-66" x1="26.319" y1="40.371" x2="-13.774" y2="-21.543" xlink:href="#linear-gradient"/>
    <linearGradient id="linear-gradient-67" x1="28.614" y1="43.907" x2="-15.473" y2="-24.162" xlink:href="#linear-gradient"/>
    <linearGradient id="linear-gradient-68" x1="47.4" y1="72.914" x2="-14.079" y2="-22.011" xlink:href="#linear-gradient"/>
    <linearGradient id="linear-gradient-69" x1="54.012" y1="83.123" x2="-22.233" y2="-34.6" xlink:href="#linear-gradient"/>
    <linearGradient id="linear-gradient-70" x1="46.558" y1="71.591" x2="-24.616" y2="-38.267" xlink:href="#linear-gradient"/>
    <linearGradient id="linear-gradient-71" x1="35.194" y1="54.067" x2="-36.647" y2="-56.855" xlink:href="#linear-gradient"/>
    <linearGradient id="linear-gradient-72" x1="30.172" y1="46.314" x2="-25.016" y2="-38.896" xlink:href="#linear-gradient"/>
    <linearGradient id="linear-gradient-73" x1="34.319" y1="52.717" x2="-23.383" y2="-36.375" xlink:href="#linear-gradient"/>
    <linearGradient id="linear-gradient-74" x1="33.128" y1="50.878" x2="-21.66" y2="-33.716" xlink:href="#linear-gradient"/>
    <linearGradient id="linear-gradient-75" x1="19.37" y1="29.635" x2="-19.202" y2="-29.92" xlink:href="#linear-gradient"/>
    <linearGradient id="linear-gradient-76" x1="30.177" y1="46.321" x2="-38.127" y2="-59.141" xlink:href="#linear-gradient"/>
    <linearGradient id="linear-gradient-77" x1="21.582" y1="33.051" x2="-17.402" y2="-27.14" xlink:href="#linear-gradient"/>
    <linearGradient id="linear-gradient-78" x1="37.571" y1="57.738" x2="-48.373" y2="-74.961" xlink:href="#linear-gradient"/>
    <linearGradient id="linear-gradient-79" x1="28.453" y1="43.66" x2="-54.35" y2="-84.189" xlink:href="#linear-gradient"/>
    <linearGradient id="linear-gradient-80" x1="14.521" y1="22.145" x2="-21.8" y2="-33.926" xlink:href="#linear-gradient"/>
    <linearGradient id="linear-gradient-81" x1="26.069" y1="39.978" x2="-40.709" y2="-63.127" xlink:href="#linear-gradient"/>
    <linearGradient id="linear-gradient-82" x1="15.132" y1="23.092" x2="-29.456" y2="-45.752" xlink:href="#linear-gradient"/>
    <linearGradient id="linear-gradient-83" x1="9.747" y1="14.775" x2="-23.686" y2="-36.838" xlink:href="#linear-gradient"/>
    <linearGradient id="linear-gradient-84" x1="13.709" y1="20.894" x2="-33.513" y2="-52.016" xlink:href="#linear-gradient"/>
  </defs>
  <rect id="Rectangle_5887" data-name="Rectangle 5887" width="1920" height="1080" fill="#091229"/>
  <g id="Group_492" data-name="Group 492" transform="translate(269.607 272)">
    <g id="Group_197" data-name="Group 197" transform="translate(434.246 176.595) rotate(180)">
      <path id="Path_447" data-name="Path 447" d="M4.922.043,4.847,0,0,2.8v.347L4.847.347,39.237,20.2V59.914L4.847,79.769,0,76.971v.347l4.772,2.755.075.043L39.462,60.131l.075-.043V20.029Z" transform="translate(0)" fill="url(#linear-gradient)"/>
    </g>
    <g id="Group_201" data-name="Group 201" transform="translate(429.549 116.768) rotate(180)">
      <path id="Path_451" data-name="Path 451" d="M34.691,80.116l-.075-.043L0,60.087V20.029l.075-.043L34.691,0l.074.043L69.382,20.029V60.087l-.075.043ZM.3,59.914,34.691,79.769,69.081,59.914V20.2L34.691.346.3,20.2Z" fill="url(#linear-gradient-2)"/>
    </g>
    <g id="Group_202" data-name="Group 202" transform="translate(360.467 116.768) rotate(180)">
      <path id="Path_452" data-name="Path 452" d="M34.691,80.116l-.075-.043L0,60.087V20.029l.075-.043L34.691,0l.075.043L69.383,20.029V60.087l-.075.043ZM.3,59.914,34.691,79.769,69.083,59.914V20.2L34.691.346.3,20.2Z" transform="translate(0)" fill="url(#linear-gradient-3)"/>
    </g>
    <g id="Group_203" data-name="Group 203" transform="translate(291.385 116.768) rotate(180)">
      <path id="Path_453" data-name="Path 453" d="M34.691,80.116l-.075-.043L0,60.087V20.029l.075-.043L34.691,0l.075.043L69.382,20.029V60.087l-.074.043ZM.3,59.914,34.691,79.769,69.083,59.914V20.2L34.691.346.3,20.2Z" fill="url(#linear-gradient-4)"/>
    </g>
    <g id="Group_204" data-name="Group 204" transform="translate(434.246 56.941) rotate(180)">
      <path id="Path_454" data-name="Path 454" d="M4.922.043,4.847,0,0,2.8v.347L4.847.347,39.237,20.2V59.914L4.847,79.769,0,76.971v.347l4.772,2.755.075.043L39.462,60.131l.075-.043V20.029Z" transform="translate(0)" fill="url(#linear-gradient-5)"/>
    </g>
    <g id="Group_205" data-name="Group 205" transform="translate(395.008 56.941) rotate(180)">
      <path id="Path_455" data-name="Path 455" d="M34.691,80.116l-.075-.043L0,60.087V20.029l.075-.043L34.691,0l.075.043L69.382,20.029V60.087l-.075.043ZM.3,59.913,34.691,79.769,69.083,59.913V20.2L34.691.346.3,20.2Z" transform="translate(0 0)" fill="url(#linear-gradient-6)"/>
    </g>
    <g id="Group_206" data-name="Group 206" transform="translate(325.925 56.941) rotate(180)">
      <path id="Path_456" data-name="Path 456" d="M34.691,80.116l-.075-.043L0,60.087V20.029l.074-.043L34.691,0l.075.043L69.382,20.029V60.087l-.075.043ZM.3,59.913,34.691,79.769,69.081,59.913V20.2L34.691.346.3,20.2Z" transform="translate(0 0)" fill="url(#linear-gradient-7)"/>
    </g>
    <g id="Group_223" data-name="Group 223" transform="translate(430.629 290.541) rotate(180)">
      <path id="Path_472" data-name="Path 472" d="M45.8,105.766,0,79.325V26.441L45.8,0,91.6,26.441V79.325ZM1.564,78.422,45.8,103.961,90.033,78.422V27.343L45.8,1.805,1.564,27.343Z" transform="translate(0 0)" fill="url(#linear-gradient-8)"/>
    </g>
    <g id="Group_225" data-name="Group 225" transform="translate(434.246 212.57) rotate(180)">
      <path id="Path_474" data-name="Path 474" d="M4.4,0,0,2.539V4.344L4.4,1.805,48.633,27.344V78.422L4.4,103.961,0,101.422v1.8l4.4,2.539L50.2,79.325V26.441Z" transform="translate(0)" fill="url(#linear-gradient-9)"/>
    </g>
    <g id="Group_226" data-name="Group 226" transform="translate(385.612 212.57) rotate(180)">
      <path id="Path_475" data-name="Path 475" d="M45.8,105.766,0,79.325V26.442L45.8,0,91.6,26.442V79.325ZM1.563,78.422,45.8,103.962l44.236-25.54V27.345L45.8,1.805,1.563,27.345Z" transform="translate(0 0)" fill="url(#linear-gradient-10)"/>
    </g>
    <g id="Group_228" data-name="Group 228" transform="translate(430.629 134.598) rotate(180)">
      <path id="Path_477" data-name="Path 477" d="M45.8,105.766,0,79.324V26.441L45.8,0,91.6,26.441V79.324ZM1.564,78.421,45.8,103.961l44.234-25.54V27.343L45.8,1.805,1.564,27.343Z" transform="translate(0)" fill="url(#linear-gradient-11)"/>
    </g>
    <g id="Group_230" data-name="Group 230" transform="translate(434.246 56.628) rotate(180)">
      <path id="Path_479" data-name="Path 479" d="M4.4,0,0,2.539V4.344L4.4,1.805,48.633,27.344V78.422L4.4,103.961,0,101.422v1.8l4.4,2.539L50.2,79.325V26.441Z" transform="translate(0)" fill="url(#linear-gradient-12)"/>
    </g>
    <g id="Group_231" data-name="Group 231" transform="translate(385.612 56.628) rotate(180)">
      <path id="Path_480" data-name="Path 480" d="M45.8,105.766,0,79.325V26.441L45.8,0,91.6,26.441V79.325ZM1.563,78.422,45.8,103.961,90.033,78.422V27.343L45.8,1.805,1.563,27.343Z" transform="translate(0)" fill="url(#linear-gradient-13)"/>
    </g>
    <path id="Path_496" data-name="Path 496" d="M0,2.262A2.262,2.262,0,1,0,2.262,0,2.261,2.261,0,0,0,0,2.262Z" transform="translate(397.12 158.741) rotate(180)" fill="url(#linear-gradient-14)"/>
    <path id="Path_502" data-name="Path 502" d="M3.743,7.485A3.743,3.743,0,1,0,0,3.742,3.743,3.743,0,0,0,3.743,7.485Z" transform="translate(398.6 120.337) rotate(180)" fill="url(#linear-gradient-15)"/>
    <path id="Path_503" data-name="Path 503" d="M3.554,1.777A1.777,1.777,0,1,0,1.777,3.554,1.777,1.777,0,0,0,3.554,1.777Z" transform="translate(327.552 118.372) rotate(180)" fill="url(#linear-gradient-16)"/>
    <circle id="Ellipse_43" data-name="Ellipse 43" cx="3.44" cy="3.44" r="3.44" transform="translate(294.674 100.092) rotate(180)" fill="url(#linear-gradient-17)"/>
    <path id="Path_504" data-name="Path 504" d="M6.644,3.322A3.322,3.322,0,1,0,3.321,6.645,3.322,3.322,0,0,0,6.644,3.322Z" transform="translate(260.015 119.917) rotate(180)" fill="url(#linear-gradient-18)"/>
    <circle id="Ellipse_44" data-name="Ellipse 44" cx="3.888" cy="3.888" r="3.888" transform="translate(226.04 100.541) rotate(180)" fill="url(#linear-gradient-19)"/>
    <circle id="Ellipse_45" data-name="Ellipse 45" cx="1.626" cy="1.626" r="1.626" transform="translate(361.942 98.278) rotate(180)" fill="url(#linear-gradient-20)"/>
    <path id="Path_507" data-name="Path 507" d="M0,2.736A2.736,2.736,0,1,0,2.736,0,2.735,2.735,0,0,0,0,2.736Z" transform="translate(328.511 39.561) rotate(180)" fill="url(#linear-gradient-21)"/>
    <path id="Path_508" data-name="Path 508" d="M3.94,0A3.941,3.941,0,1,0,7.881,3.941,3.941,3.941,0,0,0,3.94,0Z" transform="translate(364.257 60.709) rotate(180)" fill="url(#linear-gradient-22)"/>
    <circle id="Ellipse_46" data-name="Ellipse 46" cx="4.252" cy="4.252" r="4.252" transform="translate(226.404 61.019) rotate(180)" fill="url(#linear-gradient-23)"/>
    <circle id="Ellipse_49" data-name="Ellipse 49" cx="2.618" cy="2.618" r="2.618" transform="translate(397.476 39.443) rotate(180)" fill="url(#linear-gradient-24)"/>
    <circle id="Ellipse_50" data-name="Ellipse 50" cx="4.475" cy="4.475" r="4.475" transform="translate(295.71 61.243) rotate(180)" fill="url(#linear-gradient-25)"/>
    <path id="Path_512" data-name="Path 512" d="M0,1.646A1.646,1.646,0,1,0,1.646,0,1.646,1.646,0,0,0,0,1.646Z" transform="translate(258.34 38.471) rotate(180)" fill="url(#linear-gradient-26)"/>
    <path id="Path_491" data-name="Path 491" d="M3.905,7.808A3.9,3.9,0,1,0,0,3.9,3.9,3.9,0,0,0,3.905,7.808Z" transform="translate(433.304 299.98) rotate(180)" fill="url(#linear-gradient-27)"/>
    <g id="Group_187" data-name="Group 187" transform="translate(434.246 330.737) rotate(180)">
      <path id="Path_437" data-name="Path 437" d="M4.7,0V34.574L0,37.286v.347l4.922-2.842L5,34.748V0Z" transform="translate(0 0)" fill="url(#linear-gradient-28)"/>
    </g>
  </g>
  <g id="Group_493" data-name="Group 493" transform="translate(9 -314)">
    <g id="Group_232" data-name="Group 232" transform="translate(1551.185 968.617) rotate(180)">
      <path id="Path_6302" data-name="Path 6302" d="M25.764,59.5l-.055-.032L0,44.624V14.874l.055-.031L25.764,0l.055.032L51.527,14.874v29.75l-.055.032ZM.223,44.5,25.764,59.242,51.3,44.5V15L25.764.258.223,15Z" fill="url(#linear-gradient-29)"/>
    </g>
    <g id="Group_338" data-name="Group 338" transform="translate(1375.185 931.617) rotate(180)">
      <path id="Path_6302-2" data-name="Path 6302" d="M25.764,59.5l-.055-.032L0,44.624V14.874l.055-.031L25.764,0l.055.032L51.527,14.874v29.75l-.055.032ZM.223,44.5,25.764,59.242,51.3,44.5V15L25.764.258.223,15Z" fill="url(#linear-gradient-29)"/>
    </g>
    <g id="Group_233" data-name="Group 233" transform="translate(1521.035 963.998) rotate(180)">
      <path id="Path_6303" data-name="Path 6303" d="M295.676,107.117l-.094-.055L252.126,81.973V31.684l.094-.053L295.676,6.541l.094.055,43.456,25.089V81.973l-.094.055ZM252.5,81.755l43.173,24.927,43.173-24.927V31.9L295.676,6.978,252.5,31.9Z" transform="translate(-252.126 -6.541)" fill="url(#linear-gradient-31)"/>
    </g>
    <g id="Group_238" data-name="Group 238" transform="translate(1515.028 884.893) rotate(180)">
      <path id="Path_6308" data-name="Path 6308" d="M25.865,59.736l-.056-.032L0,44.8V14.934L.056,14.9,25.865,0l.057.032,25.809,14.9V44.8l-.056.032ZM.224,44.672,25.865,59.477,51.508,44.672V15.063L25.865.259.224,15.063Z" fill="url(#linear-gradient-32)"/>
    </g>
    <g id="Group_239" data-name="Group 239" transform="translate(1477.672 888.893) rotate(180)">
      <path id="Path_6309" data-name="Path 6309" d="M317.906,145.623l-.094-.055-43.454-25.089V70.19l.094-.053,43.454-25.091.1.055L361.458,70.19v50.289l-.1.055Zm-43.173-25.362,43.173,24.927,43.173-24.927V70.409L317.906,45.484,274.732,70.409Z" transform="translate(-274.358 -45.047)" fill="url(#linear-gradient-33)"/>
    </g>
    <g id="Group_240" data-name="Group 240" transform="translate(1390.951 888.893) rotate(180)">
      <path id="Path_6310" data-name="Path 6310" d="M362.37,145.623l-.094-.055L318.82,120.479V70.19l.1-.053L362.37,45.047l.1.055L405.92,70.19v50.289l-.094.055ZM319.2,120.261l43.172,24.927,43.173-24.927V70.409L362.37,45.484,319.2,70.409Z" transform="translate(-318.82 -45.047)" fill="url(#linear-gradient-34)"/>
    </g>
    <g id="Group_241" data-name="Group 241" transform="translate(1304.227 888.893) rotate(180)">
      <path id="Path_6311" data-name="Path 6311" d="M406.833,145.623l-.1-.055-43.454-25.089V70.19l.1-.053,43.454-25.091.094.055L450.383,70.19v50.289l-.1.055Zm-43.173-25.362,43.173,24.927,43.173-24.927V70.409L406.833,45.484,363.659,70.409Z" transform="translate(-363.283 -45.047)" fill="url(#linear-gradient-35)"/>
    </g>
    <g id="Group_242" data-name="Group 242" transform="translate(1217.505 870.004) rotate(180)">
      <path id="Path_6312" data-name="Path 6312" d="M418.58,117.094l-10.458-6.038V61.2l10.458-6.038v-.435l-10.74,6.2-.094.054v50.287l10.834,6.255Z" transform="translate(-407.746 -54.731)" fill="url(#linear-gradient-36)"/>
    </g>
    <g id="Group_244" data-name="Group 244" transform="translate(1347.588 813.789) rotate(180)">
      <path id="Path_6314" data-name="Path 6314" d="M384.6,184.129l-.094-.055-43.456-25.089V108.7l.094-.055L384.6,83.553l.094.055L428.15,108.7v50.289l-.094.055Zm-43.173-25.362L384.6,183.692l43.172-24.925V108.915L384.6,83.99l-43.173,24.925Z" transform="translate(-341.052 -83.553)" fill="url(#linear-gradient-37)"/>
    </g>
    <g id="Group_245" data-name="Group 245" transform="translate(1260.867 813.788) rotate(180)">
      <path id="Path_6315" data-name="Path 6315" d="M439.71,177.546l-10.646,6.146-43.173-24.926V108.914l43.173-24.926,10.646,6.146V89.7l-10.552-6.092-.094-.054-43.456,25.089-.094.054v50.287l43.456,25.089.094.055,10.646-6.146Z" transform="translate(-385.514 -83.553)" fill="url(#linear-gradient-38)"/>
    </g>
    <g id="Group_247" data-name="Group 247" transform="translate(1304.227 738.684) rotate(180)">
      <path id="Path_6317" data-name="Path 6317" d="M406.833,222.634l-.1-.055-43.454-25.089V147.2l.1-.055,43.454-25.089.094.055L450.383,147.2v50.289l-.1.053Zm-43.173-25.362L406.833,222.2l43.173-24.925V147.421L406.833,122.5l-43.173,24.925Z" transform="translate(-363.283 -122.059)" fill="url(#linear-gradient-39)"/>
    </g>
    <g id="Group_248" data-name="Group 248" transform="translate(1217.505 719.795) rotate(180)">
      <path id="Path_6318" data-name="Path 6318" d="M418.58,194.106l-10.458-6.038V138.216l10.458-6.038v-.435l-10.74,6.2-.094.054v50.288l10.834,6.255Z" transform="translate(-407.746 -131.743)" fill="url(#linear-gradient-40)"/>
    </g>
    <g id="Group_251" data-name="Group 251" transform="translate(1260.867 663.579) rotate(180)">
      <path id="Path_6321" data-name="Path 6321" d="M439.71,254.558,429.064,260.7l-43.173-24.926V185.926L429.064,161l10.646,6.146v-.435l-10.552-6.092-.094-.054-43.456,25.089-.094.054V236l43.456,25.089.094.054,10.646-6.146Z" transform="translate(-385.514 -160.565)" fill="url(#linear-gradient-41)"/>
    </g>
    <g id="Group_256" data-name="Group 256" transform="translate(1217.505 569.587) rotate(180)">
      <path id="Path_6326" data-name="Path 6326" d="M418.58,271.118l-10.458-6.037V215.228l10.458-6.038v-.435l-10.74,6.2-.094.054V265.3l10.834,6.255Z" transform="translate(-407.746 -208.755)" fill="url(#linear-gradient-42)"/>
    </g>
    <path id="Path_6373" data-name="Path 6373" d="M3.538,0A3.537,3.537,0,1,0,7.074,3.537,3.537,3.537,0,0,0,3.538,0Z" transform="translate(1554.611 957.214) rotate(180)" fill="url(#linear-gradient-43)"/>
    <path id="Path_6530" data-name="Path 6530" d="M3.538,0A3.537,3.537,0,1,0,7.074,3.537,3.537,3.537,0,0,0,3.538,0Z" transform="translate(1378.611 920.214) rotate(180)" fill="url(#linear-gradient-43)"/>
    <path id="Path_6374" data-name="Path 6374" d="M2.214,4.429A2.214,2.214,0,1,0,0,2.214,2.215,2.215,0,0,0,2.214,4.429Z" transform="translate(1553.287 926.271) rotate(180)" fill="url(#linear-gradient-45)"/>
    <path id="Path_6529" data-name="Path 6529" d="M2.214,4.429A2.214,2.214,0,1,0,0,2.214,2.215,2.215,0,0,0,2.214,4.429Z" transform="translate(1377.287 889.271) rotate(180)" fill="url(#linear-gradient-45)"/>
    <path id="Path_6375" data-name="Path 6375" d="M1.992,3.984A1.992,1.992,0,1,0,0,1.992,1.992,1.992,0,0,0,1.992,3.984Z" transform="translate(1527.413 911.239) rotate(180)" fill="url(#linear-gradient-47)"/>
    <path id="Path_6531" data-name="Path 6531" d="M1.992,3.984A1.992,1.992,0,1,0,0,1.992,1.992,1.992,0,0,0,1.992,3.984Z" transform="translate(1351.413 874.239) rotate(180)" fill="url(#linear-gradient-47)"/>
    <ellipse id="Ellipse_51" data-name="Ellipse 51" cx="1.026" cy="1.026" rx="1.026" ry="1.026" transform="translate(1526.448 969.514) rotate(180)" fill="url(#linear-gradient-49)"/>
    <ellipse id="Ellipse_96" data-name="Ellipse 96" cx="1.026" cy="1.026" rx="1.026" ry="1.026" transform="translate(1350.448 932.514) rotate(180)" fill="url(#linear-gradient-49)"/>
    <path id="Path_6376" data-name="Path 6376" d="M253.893,24.59a3.43,3.43,0,1,0-3.429-3.431A3.43,3.43,0,0,0,253.893,24.59Z" transform="translate(1774.74 959.904) rotate(180)" fill="url(#linear-gradient-51)"/>
    <path id="Path_6377" data-name="Path 6377" d="M255.156,42.071a6.023,6.023,0,1,0,6.023,6.023A6.023,6.023,0,0,0,255.156,42.071Z" transform="translate(1776.004 936.769) rotate(180)" fill="url(#linear-gradient-52)"/>
    <path id="Path_6378" data-name="Path 6378" d="M275.691,10.429a2.539,2.539,0,1,0-2.539-2.54A2.538,2.538,0,0,0,275.691,10.429Z" transform="translate(1753.176 971.669) rotate(180)" fill="url(#linear-gradient-53)"/>
    <path id="Path_6379" data-name="Path 6379" d="M298.965,26.447a4.679,4.679,0,1,0-4.679-4.679A4.679,4.679,0,0,0,298.965,26.447Z" transform="translate(1733.089 960.513) rotate(180)" fill="url(#linear-gradient-54)"/>
    <circle id="Ellipse_52" data-name="Ellipse 52" cx="5.585" cy="5.585" r="5.585" transform="translate(1439.708 894.26) rotate(180)" fill="url(#linear-gradient-55)"/>
    <path id="Path_6381" data-name="Path 6381" d="M342.784,24.482a3.358,3.358,0,1,0-3.357-3.359A3.357,3.357,0,0,0,342.784,24.482Z" transform="translate(1682.184 922.869) rotate(180)" fill="url(#linear-gradient-56)"/>
    <circle id="Ellipse_53" data-name="Ellipse 53" cx="2.393" cy="2.393" r="2.393" transform="translate(1349.794 891.068) rotate(180)" fill="url(#linear-gradient-57)"/>
    <circle id="Ellipse_54" data-name="Ellipse 54" cx="4.036" cy="4.036" r="4.036" transform="translate(1264.714 892.711) rotate(180)" fill="url(#linear-gradient-58)"/>
    <path id="Path_6388" data-name="Path 6388" d="M2.686,5.373A2.686,2.686,0,1,0,0,2.686,2.686,2.686,0,0,0,2.686,5.373Z" transform="translate(1517.604 842.843) rotate(180)" fill="url(#linear-gradient-59)"/>
    <path id="Path_6389" data-name="Path 6389" d="M275.581,56.809a2.312,2.312,0,1,0,2.311,2.311A2.313,2.313,0,0,0,275.581,56.809Z" transform="translate(1753.066 922.761) rotate(180)" fill="url(#linear-gradient-60)"/>
    <path id="Path_6390" data-name="Path 6390" d="M276.545,90.047a4.291,4.291,0,1,0-4.291-4.291A4.291,4.291,0,0,0,276.545,90.047Z" transform="translate(1754.03 899.326) rotate(180)" fill="url(#linear-gradient-61)"/>
    <circle id="Ellipse_57" data-name="Ellipse 57" cx="2.708" cy="2.708" r="2.708" transform="translate(1436.832 791.244) rotate(180)" fill="url(#linear-gradient-62)"/>
    <path id="Path_6391" data-name="Path 6391" d="M322.005,54.745a6.337,6.337,0,1,0,6.337,6.337A6.337,6.337,0,0,0,322.005,54.745Z" transform="translate(1712.766 924.723) rotate(180)" fill="url(#linear-gradient-63)"/>
    <path id="Path_6392" data-name="Path 6392" d="M365.671,64.984a4.7,4.7,0,1,0-4.7-4.7A4.7,4.7,0,0,0,365.671,64.984Z" transform="translate(1669.709 923.924) rotate(180)" fill="url(#linear-gradient-64)"/>
    <path id="Path_6393" data-name="Path 6393" d="M387.893,103.467a4.684,4.684,0,1,0-4.683-4.685A4.685,4.685,0,0,0,387.893,103.467Z" transform="translate(1648.57 887.318) rotate(180)" fill="url(#linear-gradient-65)"/>
    <path id="Path_6394" data-name="Path 6394" d="M366.072,91.878a5.522,5.522,0,1,0-5.524-5.522A5.522,5.522,0,0,0,366.072,91.878Z" transform="translate(1670.11 899.926) rotate(180)" fill="url(#linear-gradient-66)"/>
    <path id="Path_6395" data-name="Path 6395" d="M410.289,65.464a5.022,5.022,0,1,0-5.022-5.022A5.022,5.022,0,0,0,410.289,65.464Z" transform="translate(1627.606 924.082) rotate(180)" fill="url(#linear-gradient-67)"/>
    <path id="Path_6396" data-name="Path 6396" d="M4.278,2.139a2.139,2.139,0,1,0-2.14,2.14A2.139,2.139,0,0,0,4.278,2.139Z" transform="translate(1491.302 827.426) rotate(180)" fill="url(#linear-gradient-68)"/>
    <circle id="Ellipse_58" data-name="Ellipse 58" cx="2.904" cy="2.904" r="2.904" transform="translate(1393.666 816.475) rotate(180)" fill="url(#linear-gradient-69)"/>
    <path id="Path_6397" data-name="Path 6397" d="M342.664,101.129a3.112,3.112,0,1,0-3.111-3.113A3.112,3.112,0,0,0,342.664,101.129Z" transform="translate(1690.065 886.552) rotate(180)" fill="url(#linear-gradient-70)"/>
    <circle id="Ellipse_59" data-name="Ellipse 59" cx="3.082" cy="3.082" r="3.082" transform="translate(1220.398 716.513) rotate(180)" fill="url(#linear-gradient-71)"/>
    <path id="Path_6398" data-name="Path 6398" d="M387.566,120.114a4.012,4.012,0,1,0,4.012,4.012A4.012,4.012,0,0,0,387.566,120.114Z" transform="translate(1648.243 862.592) rotate(180)" fill="url(#linear-gradient-72)"/>
    <circle id="Ellipse_60" data-name="Ellipse 60" cx="3.837" cy="3.837" r="3.837" transform="translate(1221.153 817.408) rotate(180)" fill="url(#linear-gradient-73)"/>
    <circle id="Ellipse_65" data-name="Ellipse 65" cx="4.041" cy="4.041" r="4.041" transform="translate(1351.442 742.508) rotate(180)" fill="url(#linear-gradient-74)"/>
    <circle id="Ellipse_66" data-name="Ellipse 66" cx="5.74" cy="5.74" r="5.74" transform="translate(1309.78 669.102) rotate(180)" fill="url(#linear-gradient-75)"/>
    <path id="Path_6404" data-name="Path 6404" d="M387.191,178.333a3.242,3.242,0,1,0-3.242-3.242A3.241,3.241,0,0,0,387.191,178.333Z" transform="translate(1647.868 813.419) rotate(180)" fill="url(#linear-gradient-76)"/>
    <path id="Path_6405" data-name="Path 6405" d="M366.148,143.453a5.68,5.68,0,1,0-5.68-5.68A5.679,5.679,0,0,0,366.148,143.453Z" transform="translate(1670.186 851.205) rotate(180)" fill="url(#linear-gradient-77)"/>
    <circle id="Ellipse_67" data-name="Ellipse 67" cx="2.576" cy="2.576" r="2.576" transform="translate(1219.892 665.938) rotate(180)" fill="url(#linear-gradient-78)"/>
    <path id="Path_6419" data-name="Path 6419" d="M342.451,249.153a2.674,2.674,0,1,0,2.674,2.674A2.674,2.674,0,0,0,342.451,249.153Z" transform="translate(1689.852 739.945) rotate(180)" fill="url(#linear-gradient-79)"/>
    <path id="Path_6421" data-name="Path 6421" d="M366.351,208.892a6.1,6.1,0,1,0,6.1,6.1A6.1,6.1,0,0,0,366.351,208.892Z" transform="translate(1670.389 778.212) rotate(180)" fill="url(#linear-gradient-80)"/>
    <path id="Path_6422" data-name="Path 6422" d="M387.227,204.115a3.316,3.316,0,1,0-3.316-3.316A3.316,3.316,0,0,0,387.227,204.115Z" transform="translate(1647.904 789.056) rotate(180)" fill="url(#linear-gradient-81)"/>
    <path id="Path_6423" data-name="Path 6423" d="M410.262,219.4a4.966,4.966,0,1,0-4.966-4.966A4.966,4.966,0,0,0,410.262,219.4Z" transform="translate(1627.579 777.661) rotate(180)" fill="url(#linear-gradient-82)"/>
    <path id="Path_6424" data-name="Path 6424" d="M411.069,234.293a6.624,6.624,0,1,0,6.624,6.624A6.622,6.622,0,0,0,411.069,234.293Z" transform="translate(1628.385 754.069) rotate(180)" fill="url(#linear-gradient-83)"/>
    <path id="Path_6429" data-name="Path 6429" d="M387.9,257.5a4.689,4.689,0,1,0-4.689-4.689A4.688,4.688,0,0,0,387.9,257.5Z" transform="translate(1648.573 740.927) rotate(180)" fill="url(#linear-gradient-84)"/>
  </g>
  <g id="Group_494" data-name="Group 494" transform="translate(-54.115 212.603)">
    <g id="Group_501" data-name="Group 501" transform="translate(644.751 550.535)">
      <g id="Group_500" data-name="Group 500">
        <g id="Group_493-2" data-name="Group 493" transform="translate(18.037 49.241)">
          <path id="Path_6850" data-name="Path 6850" d="M1919.709,1544.73c0-.055.3-6.253-2.693-7.679l.211-.2a6.107,6.107,0,0,1,3.5,4.05c.452,1.554.109,1.9.111,1.954Z" transform="translate(-1917.017 -1536.848)" fill="#a4c8fc"/>
        </g>
        <g id="Group_496" data-name="Group 496" transform="translate(0.88 38.494)">
          <path id="Path_6851" data-name="Path 6851" d="M1854.539,1500.277s1.024,7.979,5.89,10.315,11.733-1.857,11.733-1.857-1.024-7.98-5.89-10.315S1854.539,1500.277,1854.539,1500.277Z" transform="translate(-1854.539 -1497.712)" fill="#a4c8fc"/>
          <g id="Group_494-2" data-name="Group 494" transform="translate(19.084)">
            <path id="Path_6852" data-name="Path 6852" d="M1924.289,1527.969a36.142,36.142,0,0,1,1.626-15.747,29.458,29.458,0,0,0,1.173-14.51h1.954a63.91,63.91,0,0,1-1.895,15.7c-1.872,8.021,1.623,14.554.879,14.554Z" transform="translate(-1924.034 -1497.712)" fill="#a4c8fc"/>
          </g>
          <g id="Group_495" data-name="Group 495" transform="translate(23.127 2.707)">
            <path id="Path_6853" data-name="Path 6853" d="M1939.07,1513.569c.011-.041.943-5.39,3.451-6h0a4.665,4.665,0,0,0-3.342,2.444c-.592,1.111-.385,1.426-.4,1.47Z" transform="translate(-1938.756 -1507.57)" fill="#a4c8fc"/>
          </g>
        </g>
        <path id="Path_6854" data-name="Path 6854" d="M1953.785,1506.405c-3.75-.757-5.843-6.061-5.843-6.061s3.987-4.076,7.736-3.319,5.843,6.061,5.843,6.061S1957.534,1507.162,1953.785,1506.405Z" transform="translate(-1921.413 -1458.652)" fill="#a4c8fc"/>
        <g id="Group_499" data-name="Group 499">
          <path id="Path_6855" data-name="Path 6855" d="M1854.576,1388a19.656,19.656,0,1,1,27.227,5.6A19.657,19.657,0,0,1,1854.576,1388Z" transform="translate(-1851.333 -1357.533)" fill="#ffb93e"/>
          <g id="Group_497" data-name="Group 497" transform="translate(1.871 1.938)">
            <path id="Path_6856" data-name="Path 6856" d="M1885.913,1397.46a17.908,17.908,0,1,1,7.691-11.346A17.789,17.789,0,0,1,1885.913,1397.46Zm-19.114-29.021a16.841,16.841,0,1,0,23.328,4.8A16.86,16.86,0,0,0,1866.8,1368.439Z" transform="translate(-1858.148 -1364.589)" fill="#ffa412"/>
          </g>
          <g id="Group_498" data-name="Group 498" transform="translate(11.235 7.231)">
            <path id="Path_6857" data-name="Path 6857" d="M1905.717,1399.471a2.948,2.948,0,0,0-.607-.845,2.157,2.157,0,0,0-.842-.479,4.092,4.092,0,0,0-1.161-.164,10.792,10.792,0,0,0-1.557.113,28.336,28.336,0,0,1-2.862.229,8.908,8.908,0,0,1-2.413-.244,5.237,5.237,0,0,1-1.954-.947,5.921,5.921,0,0,1-2.062-4,4.976,4.976,0,0,1,.311-2.05,6.21,6.21,0,0,1,1.139-1.883,8.284,8.284,0,0,1,1.914-1.6l-1.331-2.658,2.139-1.072,1.35,2.7a7.423,7.423,0,0,1,2.391-.436,5.612,5.612,0,0,1,4.065,1.622,7.464,7.464,0,0,1,1.477,2.065l-3.864,1.935a3.641,3.641,0,0,0-1.778-1.9,2.531,2.531,0,0,0-2.142.148,3.222,3.222,0,0,0-.952.687,2.173,2.173,0,0,0-.485.818,2.028,2.028,0,0,0-.069.9,3.006,3.006,0,0,0,.3.924,2.732,2.732,0,0,0,.55.765,2.027,2.027,0,0,0,.807.459,4.105,4.105,0,0,0,1.167.161,13.8,13.8,0,0,0,1.633-.1q1.539-.165,2.857-.188a9.018,9.018,0,0,1,2.413.26,5.063,5.063,0,0,1,3.423,2.83,5.406,5.406,0,0,1,.6,2.153,4.906,4.906,0,0,1-.324,2.042,5.99,5.99,0,0,1-1.168,1.859,8.929,8.929,0,0,1-1.937,1.592l1.238,2.471-2.126,1.065-1.231-2.459a10.039,10.039,0,0,1-2.389.591,6.355,6.355,0,0,1-2.376-.154,5.688,5.688,0,0,1-2.17-1.127,6.931,6.931,0,0,1-1.763-2.317l3.864-1.935a4.263,4.263,0,0,0,.984,1.348,2.76,2.76,0,0,0,1.135.613,2.68,2.68,0,0,0,1.191.025,4.591,4.591,0,0,0,1.148-.4,3.828,3.828,0,0,0,1.022-.713,2.558,2.558,0,0,0,.572-.846,2.032,2.032,0,0,0,.142-.918A2.483,2.483,0,0,0,1905.717,1399.471Z" transform="translate(-1892.248 -1383.865)" fill="#ffa412"/>
          </g>
        </g>
      </g>
      <path id="Path_6858" data-name="Path 6858" d="M1914.3,1600.98V1601l-.391,6.021-1.456,22.356h-27.205l-1.6-22.05-.441-6.077-.019-.266Z" transform="translate(-1874.437 -1534.128)" fill="#b4c9f7"/>
      <path id="Path_6859" data-name="Path 6859" d="M1914.349,1601.039l-.392,6.021a47.658,47.658,0,0,0-15.165-2.429c-9.371,0-15.1,2.735-15.1,2.735l-.441-6.077Z" transform="translate(-1874.488 -1534.171)" fill="#9bb8ea"/>
      <path id="Path_6860" data-name="Path 6860" d="M1911.639,1602.422h-33.048l-.378-3.842h33.846Z" transform="translate(-1870.832 -1532.387)" fill="#b4c9f7"/>
      <path id="Path_6861" data-name="Path 6861" d="M1915.922,1705.188h-28.208l-.323-1.338h28.889Z" transform="translate(-1877.489 -1608.749)" fill="#b4c9f7"/>
    </g>
    <rect id="Rectangle_5897" data-name="Rectangle 5897" width="936.144" height="2.098" rx="1.049" transform="translate(539.985 646.816)" fill="#2e3552"/>
    <g id="Group_507" data-name="Group 507" transform="translate(1276.198 403.968)">
      <g id="Group_502" data-name="Group 502" transform="translate(44.802 48.401)">
        <path id="Path_6862" data-name="Path 6862" d="M2581.16,1184.522l-2.642,2.145s-7.226-2.591-8.856,5.995c0,0-.434,3.659,1.884,3.666s1.362-.4,4.644-.3,6-1.634,6.483-4.3l1.57-2.257Z" transform="translate(-2569.63 -1133.865)" fill="#ea8e50"/>
        <path id="Path_6863" data-name="Path 6863" d="M2607.579,1055.312c-2.108-2.2-1.938-3.827-1.938-3.827s24.4-19.978,26.876-21.605c1.687-1.109,19.657-17.041,28.057-26.753,4.167-4.818,9.328-2.948,15.233-1.254l4.863,1.4c5.872,1.685,7.4,9.9,2.581,13.888-13.569,11.24-36.142,23.881-40.366,26.538-10.485,6.6-31.008,14.433-31.008,14.433A13.008,13.008,0,0,1,2607.579,1055.312Z" transform="translate(-2595.75 -1000.052)" fill="#1e3d70"/>
      </g>
      <path id="Path_6864" data-name="Path 6864" d="M2448.122,1648.26s-5.922,4.437-15,2.092c0,0-7.316-1.667-8.92,1.981,0,0,11.221,5.7,14.06,7.259a34.024,34.024,0,0,1,5.952,4.463,2.943,2.943,0,0,0,4.261-.329c.494-.607,1.059-1.33,1.677-2.168,1.73-2.345,5.762-9.918,5.762-9.918Z" transform="translate(-2419.338 -1421.857)" fill="#233862"/>
      <g id="Group_505" data-name="Group 505" transform="translate(0 5.754)">
        <circle id="Ellipse_98" data-name="Ellipse 98" cx="41.404" cy="41.404" r="41.404" transform="translate(8.325 93.987) rotate(-82.238)" fill="#e2810e"/>
        <circle id="Ellipse_99" data-name="Ellipse 99" cx="41.404" cy="41.404" r="41.404" transform="translate(0 58.554) rotate(-45)" fill="#ffb93e"/>
        <g id="Group_503" data-name="Group 503" transform="translate(20.831 21.32)">
          <path id="Path_6865" data-name="Path 6865" d="M2493.386,986.789a37.724,37.724,0,1,1,26.675,11.049A37.477,37.477,0,0,1,2493.386,986.789Zm-8.8-26.675a35.473,35.473,0,1,0,35.474-35.473A35.513,35.513,0,0,0,2484.588,960.114Z" transform="translate(-2482.338 -922.391)" fill="#ffa412"/>
        </g>
        <g id="Group_504" data-name="Group 504" transform="translate(42.045 31.184)">
          <path id="Path_6866" data-name="Path 6866" d="M2571.518,999.065a4.287,4.287,0,0,0,1.314,1.45,5.382,5.382,0,0,0,1.985.826,8.063,8.063,0,0,0,2.625.071,9.657,9.657,0,0,0,2.479-.633,5.643,5.643,0,0,0,2.067-1.424,5.809,5.809,0,0,0,1.286-2.392,8.987,8.987,0,0,0,.17-3.511l9.04-1.073a14.581,14.581,0,0,1-.416,6.119,11.98,11.98,0,0,1-2.511,4.5,13.392,13.392,0,0,1-4,3.024,21.145,21.145,0,0,1-4.886,1.729l.682,5.753-4.973.59-.686-5.782a18.845,18.845,0,0,1-5.252-.555,12.647,12.647,0,0,1-4.208-1.917,10.358,10.358,0,0,1-2.935-3.217,12.517,12.517,0,0,1-1.03-9.483,11.224,11.224,0,0,1,2.339-3.946,18.976,18.976,0,0,1,3.944-3.252q2.345-1.486,5.245-2.979a29.175,29.175,0,0,0,2.983-1.724,8.61,8.61,0,0,0,1.868-1.635,4.272,4.272,0,0,0,.888-1.741,5.769,5.769,0,0,0,.082-1.983,6.285,6.285,0,0,0-.55-1.968,4.278,4.278,0,0,0-1.161-1.5,4.584,4.584,0,0,0-1.8-.876,6.777,6.777,0,0,0-2.471-.105,5.332,5.332,0,0,0-3.939,2.22,7.67,7.67,0,0,0-.929,5.4l-9.04,1.073a15.756,15.756,0,0,1,.207-5.343,11.833,11.833,0,0,1,5.272-7.564,15.641,15.641,0,0,1,4.711-2l-.748-6.3,5-.594.738,6.218a17.459,17.459,0,0,1,5.226.6,13.094,13.094,0,0,1,4.186,1.993,10.49,10.49,0,0,1,2.923,3.247,12.465,12.465,0,0,1,1.008,9.428,11.054,11.054,0,0,1-2.341,3.931,18.784,18.784,0,0,1-3.963,3.225,59.349,59.349,0,0,1-5.3,2.912,22.743,22.743,0,0,0-2.871,1.607,8.593,8.593,0,0,0-1.851,1.634,4.546,4.546,0,0,0-.926,1.819,6.218,6.218,0,0,0-.089,2.191A5.219,5.219,0,0,0,2571.518,999.065Z" transform="translate(-2559.59 -958.311)" fill="#ffa412"/>
        </g>
      </g>
      <path id="Path_6867" data-name="Path 6867" d="M2498.641,1360.555s3.606,8.314,11.929,6.786c0,0,16.986-14.027,28.636-28.6a64.722,64.722,0,0,0,8.9-13.906c7.726-17.887,28.578-44.566,41.836-58.088l-33.171-12s-10.625,21.373-24.761,47.626C2521.821,1321.291,2509.813,1342.74,2498.641,1360.555Z" transform="translate(-2473.333 -1136.407)" fill="#2b478b"/>
      <path id="Path_6868" data-name="Path 6868" d="M2620.153,1302.375l7.2,36.368a64.733,64.733,0,0,0,8.9-13.906c7.726-17.887,28.578-44.566,41.836-58.088l-33.171-12S2634.29,1276.122,2620.153,1302.375Z" transform="translate(-2561.477 -1136.407)" fill="#233862"/>
      <path id="Path_6869" data-name="Path 6869" d="M2686.425,1656.224s.362,6.635-7.682,7.52c0,0-4.6.024-4.609,4.247l23.376.074a18.177,18.177,0,0,0,.843-5.351c.126-2.8-2.716-10.126-2.716-10.126Z" transform="translate(-2600.635 -1424.997)" fill="#233862"/>
      <path id="Path_6870" data-name="Path 6870" d="M2683.273,1250.861s-14.777,16.238-24.157,45.491c-5.1,15.916,9.354,55.933,12.173,69.837,0,0,9.7.823,16.33-1.741,0,0,.5-28.717-3.375-50.85-2.17-12.387,19.456-26.492,28.906-48.874,6.429-15.227-1.391-14.968-11-15.334Z" transform="translate(-2588.955 -1132.519)" fill="#2b478b"/>
      <path id="Path_6871" data-name="Path 6871" d="M2812.065,938.009c8.221,4.643,25.053.361,25.053.361s-6.835-7.814-3.729-20.4l-6.455,3.278L2820,924.771a57.609,57.609,0,0,0-.76,6.215c-.079,1.028-.15,2.176-.2,3.431A21.569,21.569,0,0,0,2812.065,938.009Z" transform="translate(-2700.689 -892.11)" fill="#ffb07b"/>
      <path id="Path_6872" data-name="Path 6872" d="M2702.279,1052.138c0,1.445,1.665,2.137,2.019,2.207,3.316.606,12.575,4.208,20.916,5.033a66.874,66.874,0,0,0,20.708-1.4c.949-.191,3.176-.79,3.334-1.7.2-.993,27.632-55.927,6.3-79.525-.5-.553-4.711.444-8.56,1.357a15.8,15.8,0,0,1-9.729-.8l-3.611,1.9c-4.434,2.471-12.823,11.249-13.8,18.136-.5,3.5-2.5,6.1-3.081,9.178q-.323,1.71-.659,3.338-.655,3.192-1.35,6.079c-1.254,5.209-2.579,9.694-3.879,13.568-1.383,4.113-2.74,7.535-3.953,10.4-1.573,3.712-2.9,6.485-3.731,8.609A10.608,10.608,0,0,0,2702.279,1052.138Z" transform="translate(-2621.051 -934.635)" fill="#d2e3fc"/>
      <path id="Path_6873" data-name="Path 6873" d="M2705.639,1097.769c38.727-18.246,52.139-53.281,52.139-53.281s-31.464,11.607-39.226,14.628q-.655,3.192-1.35,6.079c-1.254,5.209-2.578,9.694-3.879,13.568-1.383,4.113-2.741,7.535-3.953,10.4C2707.8,1092.871,2706.469,1095.645,2705.639,1097.769Z" transform="translate(-2623.489 -983.885)" fill="#a4c8fc"/>
      <g id="Group_506" data-name="Group 506" transform="translate(44.802 50.132)">
        <path id="Path_6874" data-name="Path 6874" d="M2584.322,1199.444l-3.347,1.227s-6.7-4.738-10.874,2.969c0,0-1.51,3.366.88,4.1s1.52.043,4.878,1.161,6.666.313,7.934-2.086l2.274-1.669Z" transform="translate(-2569.631 -1146.266)" fill="#ffb07b"/>
        <path id="Path_6875" data-name="Path 6875" d="M2608.337,1064.268c-1.238-3.228-1.8-4.691-1.8-4.691s25.287-20.611,27.864-22.379c1.755-1.205,19.235-14.271,27.757-24.453a17.835,17.835,0,0,1,17.339-6.008l5.308,1.113a7.894,7.894,0,0,1,3.52,13.72c-14,12-37.622,25.929-42.026,28.825-10.932,7.189-35.113,17.264-35.113,17.264A6.226,6.226,0,0,1,2608.337,1064.268Z" transform="translate(-2596.401 -1006.358)" fill="#d2e3fc"/>
      </g>
      <path id="Path_6876" data-name="Path 6876" d="M2838.19,939.645c8.085.454,13.343-6.221,13.343-6.221a64.175,64.175,0,0,1-5.648-3.515l-6.934,3.522A57.524,57.524,0,0,0,2838.19,939.645Z" transform="translate(-2719.64 -900.77)" fill="#ea8e50"/>
      <path id="Path_6877" data-name="Path 6877" d="M2823.77,880.654s12.25,8.791,17.608,1.078,10.546-11.773,2.951-17.712-11.175-4.063-13.59-1.923S2820.721,878.168,2823.77,880.654Z" transform="translate(-2708.665 -850.08)" fill="#ffb07b"/>
      <path id="Path_6878" data-name="Path 6878" d="M2846.21,828.849a19.72,19.72,0,0,1,1.427-5.051s.769,3.185,6.588,2.745,15.044.572,18.118,7.2c.2.422.37.857.525,1.3a15.363,15.363,0,0,0,.69-3.673c1.106,2.855,0,6.426,0,6.426h0c.017.1.031.208.045.313,1.284,1.086,2.363,4.462,2.363,4.462a4.044,4.044,0,0,0-2.176-1.934c.026,5.16-2.067,10.205-5.74,11.707-5.371,2.2-5.329.521-10.731,4.1,0,0-1.449-1.8-.46-3.006s4.721-2.965,2.635-4.722-2.854.22-3.624-.988,3.075-4.722-1.866-8.016S2845.771,831.814,2846.21,828.849Z" transform="translate(-2725.43 -823.798)" fill="#233862"/>
    </g>
    <g id="Group_550" data-name="Group 550" transform="translate(457.091 328.764)">
      <g id="Group_548" data-name="Group 548" transform="translate(0 0)">
        <g id="Group_540" data-name="Group 540" transform="translate(109.762 176.006)">
          <path id="Path_6949" data-name="Path 6949" d="M1575.776,1214.624c-.006-.165.908-18.841-8.114-23.138l.637-.612c4.133,1.443,8.714,5.905,10.547,12.2,1.362,4.682.327,5.71.333,5.887Z" transform="translate(-1567.662 -1190.875)" fill="#a4c8fc"/>
        </g>
        <g id="Group_543" data-name="Group 543" transform="translate(94.228 143.627)">
          <path id="Path_6950" data-name="Path 6950" d="M1511.179,1139.88s-1.031,9.607,4,13.693,14.223,1.1,14.223,1.1,1.031-9.607-4-13.693S1511.179,1139.88,1511.179,1139.88Z" transform="translate(-1511.092 -1120.744)" fill="#a4c8fc"/>
          <g id="Group_541" data-name="Group 541" transform="translate(21.341)">
            <path id="Path_6951" data-name="Path 6951" d="M1589.572,1164.126a108.918,108.918,0,0,1,4.9-47.445,88.769,88.769,0,0,0,3.534-43.715h5.885c.152.853.561,20.451-5.707,47.31-5.64,24.169,4.892,43.85,2.65,43.85Z" transform="translate(-1588.805 -1072.966)" fill="#a4c8fc"/>
          </g>
          <g id="Group_542" data-name="Group 542" transform="translate(33.521 8.156)">
            <path id="Path_6952" data-name="Path 6952" d="M1634.108,1120.741c.031-.125,2.84-16.24,10.4-18.073h0a14.056,14.056,0,0,0-10.07,7.362c-1.784,3.349-1.16,4.3-1.193,4.43Z" transform="translate(-1633.162 -1102.668)" fill="#a4c8fc"/>
          </g>
        </g>
        <path id="Path_6953" data-name="Path 6953" d="M1266.4,921.714s-8.151-11.51-17.41-14.889c0,0,3.462,27-1.6,27.33S1245.7,903.8,1245.7,903.8s-24.117-13.391-33.911-13.019c0,0,13.865,26.975,8.876,26.052s-20.721-28.322-20.721-28.322-25.168-6.2-30.136,8.637,1.188,22.765,4.9,23.928,27.921,2.266,27.109,5.371-17.442,7.173-26.386,3.813c0,0,8.6,25.405,21.866,24.922s17.829-8.412,26.033-8.562,14.044,2.4,9.831,4.358-17.948-.329-24.873,4.893-12.468,8.364-.364,11.6,30.373-.417,39.042-6.194c.025-.017,7.1-.578,12.667,32.165,2.147,12.623.5,31.348.5,31.348l4.492-.684c2.493-36.7-10.754-67.215-10.754-67.215S1276.349,940.264,1266.4,921.714Z" transform="translate(-1167.954 -794.6)" fill="#a4c8fc"/>
        <path id="Path_6954" data-name="Path 6954" d="M1742.665,993.431s-27.079-11.377-17.386-32.076c0,0,8.162-12.959,18-17.168,0,0-2.166,29.475,3.344,29.539s.045-33.018.045-33.018,25.362-15.938,36-16.111c0,0-13.447,30.064-8.091,28.77s20.8-31.928,20.8-31.928,26.925-8.206,33.184,7.592.051,24.754-3.908,26.233-30.141,4.1-29.078,7.418,19.334,6.752,28.834,2.582c0,0-7.828,28.052-22.242,28.309s-19.827-8.072-28.731-7.752-15.086,3.427-10.4,5.3,19.441-1.412,27.257,3.843,14.011,8.336,1.077,12.551-36.893,5.208-42.8-4.44Z" transform="translate(-1570.714 -817.877)" fill="#d2e3fc"/>
        <g id="Group_544" data-name="Group 544" transform="translate(163.755 117.669)">
          <path id="Path_6955" data-name="Path 6955" d="M1857.515,978.438s-68.687,31.159-73.915,57.885c0,0,1.646,11.506-3.985,25.554l.577,5.093s5.509-18.161,9.315-21C1789.506,1045.971,1771.012,1025.369,1857.515,978.438Z" transform="translate(-1775.404 -978.438)" fill="#a4c8fc"/>
          <path id="Path_6956" data-name="Path 6956" d="M1768.492,1272.948s-9.106,17.942-.537,37.558l2.743-1.08s-5.28-22.077-.8-33.988S1768.492,1272.948,1768.492,1272.948Z" transform="translate(-1764.281 -1189.509)" fill="#a4c8fc"/>
        </g>
        <path id="Path_6957" data-name="Path 6957" d="M1322.09,718.571c11.1,11.81,5.325,35.264,5.325,35.264s-23.768,4.306-34.866-7.5-5.325-35.264-5.325-35.264S1310.992,706.762,1322.09,718.571Z" transform="translate(-1253.383 -666.264)" fill="#a4c8fc"/>
        <path id="Path_6958" data-name="Path 6958" d="M1326.055,718.571c11.1,11.81,5.325,35.264,5.325,35.264l-40.191-42.768S1314.957,706.762,1326.055,718.571Z" transform="translate(-1257.348 -666.264)" fill="#d2e3fc"/>
        <path id="Path_6959" data-name="Path 6959" d="M1886.445,852.421c-5.792,6.709-18.878,4.9-18.878,4.9s-3.7-12.683,2.1-19.392,18.878-4.9,18.878-4.9S1892.236,845.712,1886.445,852.421Z" transform="translate(-1674.606 -755.13)" fill="#a4c8fc"/>
        <path id="Path_6960" data-name="Path 6960" d="M1667.985,1093.009c-3.882,1.077-8.377-2.906-8.377-2.906s1.8-5.729,5.683-6.806,8.376,2.906,8.376,2.906S1671.867,1091.932,1667.985,1093.009Z" transform="translate(-1524.597 -936.699)" fill="#a4c8fc"/>
        <path id="Path_6961" data-name="Path 6961" d="M1396.888,639.263c2.661,6.311-3.074,14.755-3.074,14.755s-10.05-1.788-12.711-8.1,3.074-14.755,3.074-14.755S1394.227,632.953,1396.888,639.263Z" transform="translate(-1322.06 -608.859)" fill="#a4c8fc"/>
        <g id="Group_547" data-name="Group 547" transform="translate(39.392)">
          <circle id="Ellipse_102" data-name="Ellipse 102" cx="59.222" cy="59.222" r="59.222" transform="translate(5.126 83.753) rotate(-45)" fill="#e2810e"/>
          <circle id="Ellipse_103" data-name="Ellipse 103" cx="59.223" cy="59.223" r="59.223" transform="translate(0 84.398) rotate(-45)" fill="#ffb93e"/>
          <g id="Group_545" data-name="Group 545" transform="translate(29.874 31.126)">
            <path id="Path_6962" data-name="Path 6962" d="M1480.9,770.786a53.958,53.958,0,1,1,35.881-20.447A53.607,53.607,0,0,1,1480.9,770.786Zm-13.079-103.877a50.739,50.739,0,1,0,56.68,44A50.8,50.8,0,0,0,1467.819,666.909Z" transform="translate(-1420.191 -663.285)" fill="#ffa412"/>
          </g>
          <g id="Group_546" data-name="Group 546" transform="translate(61.699 45.159)">
            <path id="Path_6963" data-name="Path 6963" d="M1567.552,768.93a8.9,8.9,0,0,0-.518-3.093,6.5,6.5,0,0,0-1.639-2.416,12.3,12.3,0,0,0-2.92-1.989,32.534,32.534,0,0,0-4.36-1.768,84.929,84.929,0,0,1-8.042-3.186,26.871,26.871,0,0,1-6.2-3.869,15.8,15.8,0,0,1-4.024-5.161,17.83,17.83,0,0,1-.255-13.559,15,15,0,0,1,3.568-5.131,18.716,18.716,0,0,1,5.584-3.576,24.968,24.968,0,0,1,7.309-1.789l-.064-8.956,7.208-.051.065,9.081a22.38,22.38,0,0,1,7.043,2,16.924,16.924,0,0,1,8.833,9.793,22.526,22.526,0,0,1,1.248,7.545l-13.02.093q-.036-5.022-2.283-7.5a7.622,7.622,0,0,0-5.988-2.448,9.693,9.693,0,0,0-3.487.591,6.571,6.571,0,0,0-2.4,1.565,6.126,6.126,0,0,0-1.38,2.333,9,9,0,0,0-.43,2.891,8.251,8.251,0,0,0,.47,2.8,6.1,6.1,0,0,0,1.571,2.312,12.315,12.315,0,0,0,2.943,1.987,41.6,41.6,0,0,0,4.542,1.914q4.381,1.6,7.976,3.291a27.171,27.171,0,0,1,6.178,3.911,15.256,15.256,0,0,1,5.494,12.2,16.312,16.312,0,0,1-1.237,6.621,14.816,14.816,0,0,1-3.591,5.09,18.094,18.094,0,0,1-5.629,3.473,26.978,26.978,0,0,1-7.354,1.727l.06,8.327-7.163.051-.059-8.286a30.229,30.229,0,0,1-7.243-1.58,19.166,19.166,0,0,1-6.221-3.576,17.145,17.145,0,0,1-4.367-5.933,20.869,20.869,0,0,1-1.684-8.609l13.02-.093a12.858,12.858,0,0,0,.869,4.953,8.317,8.317,0,0,0,2.253,3.165,8.072,8.072,0,0,0,3.188,1.651,13.808,13.808,0,0,0,3.63.455,11.548,11.548,0,0,0,3.713-.57,7.7,7.7,0,0,0,2.67-1.526,6.127,6.127,0,0,0,1.605-2.292A7.473,7.473,0,0,0,1567.552,768.93Z" transform="translate(-1536.083 -714.387)" fill="#ffa412"/>
          </g>
        </g>
      </g>
      <g id="Group_549" data-name="Group 549" transform="translate(77.657 227.082)">
        <path id="Path_6964" data-name="Path 6964" d="M1559.475,1384.1l0,.048-1.18,18.142-4.385,67.356h-81.968l-4.826-66.434-1.33-18.31-.058-.8Z" transform="translate(-1461.612 -1382.119)" fill="#739af0"/>
        <path id="Path_6965" data-name="Path 6965" d="M1559.624,1384.279l-1.179,18.142a143.6,143.6,0,0,0-45.692-7.319c-28.233,0-45.487,8.242-45.487,8.242l-1.33-18.31Z" transform="translate(-1461.766 -1382.245)" fill="#618dd8"/>
        <path id="Path_6966" data-name="Path 6966" d="M1551.46,1388.448h-99.571l-1.14-11.576h101.976Z" transform="translate(-1450.749 -1376.872)" fill="#739af0"/>
        <path id="Path_6967" data-name="Path 6967" d="M1564.364,1698.071h-84.988l-.973-4.032h87.041Z" transform="translate(-1470.809 -1606.943)" fill="#618dd8"/>
      </g>
    </g>
    <g id="Group_560" data-name="Group 560" transform="translate(1406.76 503.841)">
      <g id="Group_558" data-name="Group 558" transform="translate(0 0)">
        <g id="Group_553" data-name="Group 553" transform="translate(44.18 64.605)">
          <g id="Group_551" data-name="Group 551">
            <path id="Path_6968" data-name="Path 6968" d="M1255.148,1463.76a49,49,0,0,1,2.2-21.341,39.922,39.922,0,0,0,1.59-19.663h2.648c.068.384.252,9.2-2.567,21.28-2.537,10.871,2.2,19.724,1.192,19.724Z" transform="translate(-1254.803 -1422.755)" fill="#a4c8fc"/>
          </g>
          <g id="Group_552" data-name="Group 552" transform="translate(5.479 3.669)">
            <path id="Path_6969" data-name="Path 6969" d="M1275.181,1444.245c.014-.056,1.277-7.305,4.676-8.13h0a6.323,6.323,0,0,0-4.53,3.312c-.8,1.506-.522,1.933-.537,1.993Z" transform="translate(-1274.755 -1436.115)" fill="#a4c8fc"/>
          </g>
        </g>
        <path id="Path_6970" data-name="Path 6970" d="M1137.723,1412.588s-3.326-5.4-7.384-7.188c0,0,.772,12.218-1.51,12.221s.121-13.676.121-13.676-10.437-6.709-14.844-6.826c0,0,5.442,12.51,3.229,11.951s-8.481-13.313-8.481-13.313-11.118-3.513-13.777,3-.126,10.253,1.508,10.883,12.467,1.826,12.013,3.2-8.037,2.715-11.954.947c0,0,3.124,11.653,9.093,11.82s8.247-3.259,11.934-3.089,6.234,1.483,4.287,2.241-8.047-.667-11.307,1.476-5.839,3.393-.5,5.194,13.646.693,17.7-1.649c.012-.007,3.2-.054,4.754,14.805.6,5.728-.686,14.085-.686,14.085l2.036-.177a71.941,71.941,0,0,0-2.88-30.483S1141.65,1421.2,1137.723,1412.588Z" transform="translate(-1093.919 -1337.88)" fill="#a4c8fc"/>
        <path id="Path_6971" data-name="Path 6971" d="M1290.419,1431.771c-1.746.484-3.768-1.307-3.768-1.307s.81-2.577,2.556-3.062,3.768,1.307,3.768,1.307S1292.165,1431.286,1290.419,1431.771Z" transform="translate(-1233.726 -1361.461)" fill="#a4c8fc"/>
        <g id="Group_554" data-name="Group 554" transform="translate(70.735 18.498)">
          <path id="Path_6972" data-name="Path 6972" d="M1357.556,1295.7c-6.1,3.993-6.048,14.858-6.048,14.858s9.939,4.39,16.037.4,6.048-14.859,6.048-14.859S1363.654,1291.7,1357.556,1295.7Z" transform="translate(-1351.508 -1283.263)" fill="#a4c8fc"/>
          <path id="Path_6973" data-name="Path 6973" d="M1357.556,1295.7c-6.1,3.993-6.048,14.858-6.048,14.858l22.085-14.462S1363.654,1291.7,1357.556,1295.7Z" transform="translate(-1351.508 -1283.263)" fill="#d2e3fc"/>
          <path id="Path_6974" data-name="Path 6974" d="M1369.893,1257.063c-1.829,2.479-.212,6.776-.212,6.776s4.583.279,6.413-2.2.212-6.776.212-6.776S1371.722,1254.584,1369.893,1257.063Z" transform="translate(-1364.212 -1254.853)" fill="#a4c8fc"/>
        </g>
        <g id="Group_557" data-name="Group 557" transform="translate(12.221)">
          <circle id="Ellipse_104" data-name="Ellipse 104" cx="26.639" cy="26.639" r="26.639" transform="translate(0 37.673) rotate(-45)" fill="#e2810e"/>
          <circle id="Ellipse_105" data-name="Ellipse 105" cx="26.639" cy="26.639" r="26.639" transform="matrix(0.998, -0.065, 0.065, 0.998, 7.05, 13.116)" fill="#ffb93e"/>
          <g id="Group_555" data-name="Group 555" transform="translate(11.132 14.001)">
            <path id="Path_6975" data-name="Path 6975" d="M1206.266,1286.832a24.27,24.27,0,1,1,16.139-9.2A24.112,24.112,0,0,1,1206.266,1286.832Zm-5.883-46.724a22.823,22.823,0,1,0,25.495,19.793A22.848,22.848,0,0,0,1200.383,1240.108Z" transform="translate(-1178.96 -1238.477)" fill="#ffa412"/>
          </g>
          <g id="Group_556" data-name="Group 556" transform="translate(25.447 20.313)">
            <path id="Path_6976" data-name="Path 6976" d="M1245.243,1286a4.006,4.006,0,0,0-.233-1.391,2.931,2.931,0,0,0-.737-1.087,5.532,5.532,0,0,0-1.314-.894,14.631,14.631,0,0,0-1.961-.8,38.242,38.242,0,0,1-3.617-1.433,12.066,12.066,0,0,1-2.789-1.74,7.107,7.107,0,0,1-1.81-2.321,8.023,8.023,0,0,1-.114-6.1,6.743,6.743,0,0,1,1.6-2.308,8.42,8.42,0,0,1,2.512-1.609,11.238,11.238,0,0,1,3.287-.8l-.029-4.028,3.242-.023.029,4.085a10.068,10.068,0,0,1,3.168.9,7.609,7.609,0,0,1,3.973,4.405,10.129,10.129,0,0,1,.561,3.394l-5.856.042a4.936,4.936,0,0,0-1.027-3.372,3.43,3.43,0,0,0-2.693-1.1,4.358,4.358,0,0,0-1.568.266,2.948,2.948,0,0,0-1.079.7,2.752,2.752,0,0,0-.621,1.049,4.048,4.048,0,0,0-.193,1.3,3.711,3.711,0,0,0,.212,1.259,2.745,2.745,0,0,0,.707,1.04,5.547,5.547,0,0,0,1.323.894,18.772,18.772,0,0,0,2.043.861q1.97.72,3.588,1.48a12.22,12.22,0,0,1,2.779,1.759,6.862,6.862,0,0,1,2.471,5.489,7.332,7.332,0,0,1-.556,2.978,6.657,6.657,0,0,1-1.615,2.289,8.136,8.136,0,0,1-2.532,1.562,12.147,12.147,0,0,1-3.308.777l.027,3.746-3.222.023-.027-3.727a13.573,13.573,0,0,1-3.258-.711,8.617,8.617,0,0,1-2.8-1.608,7.713,7.713,0,0,1-1.965-2.669,9.386,9.386,0,0,1-.757-3.872l5.857-.042a5.78,5.78,0,0,0,.391,2.228,3.739,3.739,0,0,0,1.013,1.423,3.63,3.63,0,0,0,1.434.743,6.205,6.205,0,0,0,1.633.2,5.192,5.192,0,0,0,1.67-.256,3.469,3.469,0,0,0,1.2-.686,2.764,2.764,0,0,0,.722-1.031A3.361,3.361,0,0,0,1245.243,1286Z" transform="translate(-1231.088 -1261.464)" fill="#ffa412"/>
          </g>
        </g>
      </g>
      <g id="Group_559" data-name="Group 559" transform="translate(27.127 102.143)">
        <path id="Path_6977" data-name="Path 6977" d="M1241.61,1562.708l0,.021-.531,8.16-1.972,30.3h-36.87l-2.171-29.882-.6-8.236-.026-.361Z" transform="translate(-1197.591 -1561.814)" fill="#b4c9f7"/>
        <path id="Path_6978" data-name="Path 6978" d="M1241.677,1562.786l-.531,8.16a64.592,64.592,0,0,0-20.552-3.292c-12.7,0-20.461,3.707-20.461,3.707l-.6-8.236Z" transform="translate(-1197.66 -1561.871)" fill="#9bb8ea"/>
        <path id="Path_6979" data-name="Path 6979" d="M1238.005,1564.661h-44.788l-.513-5.207h45.869Z" transform="translate(-1192.705 -1559.454)" fill="#b4c9f7"/>
        <path id="Path_6980" data-name="Path 6980" d="M1243.81,1703.932h-38.228l-.438-1.814H1244.3Z" transform="translate(-1201.728 -1662.942)" fill="#b4c9f7"/>
      </g>
    </g>
    <g id="Group_561" data-name="Group 561" transform="translate(605.99 388.895)">
      <path id="Path_6981" data-name="Path 6981" d="M1880.185,1140.623s-4.21-.821-5.173,0-5.529,5.461-4.552,6.984,5.665-1.261,6.64-1.523,3.7-1.327,3.7-1.327Z" transform="translate(-1826.349 -1038.283)" fill="#ffb27d"/>
      <path id="Path_6982" data-name="Path 6982" d="M2069.162,1313.188l4.513,1.681s19.6-27.19,22.018-51.112a36.339,36.339,0,0,0-.645-12.23s.191-1.094.527-3.029c.155-.9.346-1.99.564-3.235.637-3.652,1.514-8.648,2.517-14.338,2.307-13.093,5.3-29.83,7.617-42.134l-1.216-.391-13.159-4.245-2.719-8.637-9.8-2.579s-2.189,4.282-4.146,24.508c-.361,2.653-.688,5.579-.936,8.752a173.172,173.172,0,0,0,.933,35.43q.674,5.273,1.72,10.874a48.529,48.529,0,0,1,.376,10.738C2076.341,1282.8,2069.162,1313.188,2069.162,1313.188Z" transform="translate(-1970.584 -1061.99)" fill="#2b478b"/>
      <path id="Path_6983" data-name="Path 6983" d="M2087.868,1206.2l21.277,42.3c.154-.9.346-1.99.564-3.235.637-3.652,1.514-8.648,2.517-14.338,2.307-13.093,5.3-29.83,7.617-42.134l-1.216-.391-13.159-4.245-2.72-8.637-9.8-2.579s-2.189,4.282-4.146,24.508C2088.443,1200.1,2088.115,1203.026,2087.868,1206.2Z" transform="translate(-1984.153 -1061.99)" fill="#233862"/>
      <path id="Path_6984" data-name="Path 6984" d="M2121.954,1165.37l.492-4.224c8.252,2.192,30.3-6.124,30.3-6.124s7.994,7.026,6.945,23.871c-.512,8.222-1.448,43.157-2.426,53.5-.353,3.747-.663,6.413-.789,7.478a.019.019,0,0,0,0,.01,1.48,1.48,0,0,0,.24.915,48.581,48.581,0,0,1,3.608,7.587c9.593,25.563-1.477,57.043-1.477,57.043l-2.873-1.158s-6.3-35.034-11.419-50.511a30.673,30.673,0,0,0-2.465-5.921c-2.226-3.592-4.291-9.461-6.166-16.441-3.543-13.2-6.4-30.366-8.293-43.618C2127.366,1187.784,2121.954,1165.37,2121.954,1165.37Z" transform="translate(-2008.879 -1048.993)" fill="#2b478b"/>
      <path id="Path_6985" data-name="Path 6985" d="M1906.234,1018.113l.615,4.133s.273,0,.751-.034c1.5-.1,5.158-.307,9.291-.752,6.216-.615,13.594-1.708,16.532-3.518,4.474-2.732,11.818-11.1,16.6-19.47a5.466,5.466,0,0,0,.342-.615c2.493-4.44,4.235-8.847,4.372-12.365a17.667,17.667,0,0,0-.58-5.6,14.284,14.284,0,0,0-2.528-5.055,2.562,2.562,0,0,0-.478-.581,11.8,11.8,0,0,0-3.245-2.766c-.82-.342-1.708.068-2.63,1.059v.034a15.668,15.668,0,0,0-2.357,3.484c-.034.034-.069.068-.069.1-.171.307-.342.649-.546,1.025a.863.863,0,0,0-.136.239q-.564,1.178-1.128,2.459c-4.2,9.154-8.676,23.022-12.4,27.155-1.605,1.776-8.949,5.26-14.79,7.856C1909.65,1016.747,1906.234,1018.113,1906.234,1018.113Z" transform="translate(-1852.397 -915.773)" fill="#ffb27d"/>
      <path id="Path_6986" data-name="Path 6986" d="M2064.547,925.01a25.691,25.691,0,0,0,9.5,2.226c14.187.777,17.408-11.659,17.994-19.913a11.9,11.9,0,0,0-4.868-.615c-1.006.055-2.056.158-2.922.266-1.735-.906-4.853-5.31-6.655-12.676l-.612.284-10.237,4.813s1.087,3.331,1.891,6.519c.626,2.495,1.076,4.9.7,5.579-.807.328-1.289.534-1.289.534a.028.028,0,0,1,0,.011A70.26,70.26,0,0,0,2064.547,925.01Z" transform="translate(-1967.236 -859.864)" fill="#ffb27d"/>
      <path id="Path_6987" data-name="Path 6987" d="M2048.479,966.385c.107.284.224.56.354.844,3.593,7.738,10.244,39.793,10.244,39.793-.947,5.763,43.312-1.132,43.426-6.379,1.559-5.564-5.531-14.5-9.529-18.988a12.758,12.758,0,0,1-1.341-1.806,12.586,12.586,0,0,1-1.813-5.291c-.786-7.439-.487-14.41-.552-18.649h0c-.781-.579-1.537-1.113-2.24-1.621a20,20,0,0,1-2.727-2.262,4.129,4.129,0,0,1-1.308-2.576,13.692,13.692,0,0,1,.055-2.159c.033-.343.077-.686.129-1.028a29.256,29.256,0,0,1,2.056-6.865c-3.807-1.54-10.576-.623-10.576-.623s.007.376.011.991c.022,2.473,0,8.822-.792,10.023-.991,1.5-19.124,8.052-20.082,6.021-.944-2,1.639-11.353,1.735-11.707a.028.028,0,0,0,0-.011c-6.073,2.384-8.244,4.385-8.244,4.385C2050.948,950.849,2045.649,958.878,2048.479,966.385Z" transform="translate(-1954.718 -891.931)" fill="#f99746"/>
      <path id="Path_6988" data-name="Path 6988" d="M2052.99,776.5c.022-.615.5-7.243,10.594-7.589,0,0-4.964.592-5.822,2.774,0,0,3.381-2.7,6.133-1.829s4.369,5.69,4.385,7.276-1.513,6.7-3.26,7.135a5.327,5.327,0,0,1-2.116,0,23.888,23.888,0,0,1,1.356,2.421c4.028,8.269-.126,16.35-3.536,15.458-2.187-.573-2.806,3.16-2.806,3.16l-21.249-17.2S2044.474,771.952,2052.99,776.5Z" transform="translate(-1947.014 -768.908)" fill="#2c3a64"/>
      <path id="Path_6989" data-name="Path 6989" d="M2072.57,900.149s1.088,3.328,1.89,6.518c5.984-1.669,7.8-7.959,8.347-11.331Z" transform="translate(-1973.056 -860.619)" fill="#ed985f"/>
      <path id="Path_6990" data-name="Path 6990" d="M2043.937,856.918s14.316-3.313,12.115-12.2-1.835-15.293-11.068-13.554-10.163,5.568-10.149,8.711S2040.157,857.551,2043.937,856.918Z" transform="translate(-1945.684 -813.864)" fill="#ffb27d"/>
      <path id="Path_6991" data-name="Path 6991" d="M2030.221,830.56c1.539-3.22,3.35-3.048,4.483-2.477a10.269,10.269,0,0,1,13.324-1.139,17.482,17.482,0,0,0,8.043,8.641s-2.2,2.252-8.573,2.2a10.494,10.494,0,0,1-5.686-2.141,34.28,34.28,0,0,0,7.464,5.567c-7.979-1.527-13.329-10.764-13.878-11.746a11.516,11.516,0,0,0-2.078,4.917c-.148,2.438.691,7.173-.7,7.352C2032.616,841.738,2027.913,835.388,2030.221,830.56Z" transform="translate(-1941.874 -809.587)" fill="#2c3a64"/>
      <path id="Path_6992" data-name="Path 6992" d="M2036.817,974.816s-3.447,6.013-3.963,7.56c0,0,4.47-.172,6.275,3.266C2039.129,985.642,2039.562,975.627,2036.817,974.816Z" transform="translate(-1944.247 -918.272)" fill="#f99746"/>
      <path id="Path_6993" data-name="Path 6993" d="M2123.231,1031.971c8.729-.092,16.122-9.157,20.639-16.4a12.593,12.593,0,0,1-1.813-5.291c-.785-7.439-.487-14.41-.552-18.649h0c-.781-.579-1.536-1.113-2.24-1.621a20.02,20.02,0,0,1-2.727-2.262C2129.388,999.828,2111.4,1032.1,2123.231,1031.971Z" transform="translate(-2006.954 -927.651)" fill="#ed7d2b"/>
      <path id="Path_6994" data-name="Path 6994" d="M2013.454,1003l1.2,4.372s1.5-.273,3.894-.717c.717-.137,1.127-.239,1.127-.239,1.912-.376,4.2-.888,6.695-1.435h.034c4.27-1.025,9.051-2.254,13.082-3.621a35.947,35.947,0,0,0,6.968-3.108,4.191,4.191,0,0,0,.479-.342c4-2.9,8.744-11.442,12.433-20.6.512-1.264.991-2.528,1.469-3.757a93.5,93.5,0,0,0,3.893-12.98,36.657,36.657,0,0,0,.922-6.182,15.047,15.047,0,0,0,.034-1.742c-.069-9.905-4.987-11.271-4.987-11.271-.1-.034-.205-.068-.342-.1-.854-.137-1.742.444-2.665,1.571a31.039,31.039,0,0,0-3.655,6.455c-1.947,4.406-4,10.111-5.909,15.781-1.059,3.108-2.084,6.216-3.108,9.085-.58,1.742-1.161,3.382-1.708,4.885a47.029,47.029,0,0,1-2.869,6.661,16.551,16.551,0,0,1-4.2,3.791,153.04,153.04,0,0,1-13.526,8.4c-1.913,1.093-3.723,2.084-5.226,2.9C2015.059,1002.144,2013.454,1003,2013.454,1003Z" transform="translate(-1930.174 -893.929)" fill="#ffb27d"/>
      <path id="Path_6995" data-name="Path 6995" d="M2161.268,949.365c6.575-1.813,11.648,3.321,11.648,3.321-.083-9.889-5.005-11.243-5.005-11.243C2165.93,940.623,2163.635,944.052,2161.268,949.365Z" transform="translate(-2037.397 -893.976)" fill="#f99746"/>
      <path id="Path_6996" data-name="Path 6996" d="M2195.47,1677.415H2218.2a12.48,12.48,0,0,0-.643-6.093c-1.137-2.522-2.919-3.669-2.493-6.72a8.189,8.189,0,0,1-7.086,2.711c-.4.653-2.6,4.147-3.944,5.113C2202.552,1673.493,2195.928,1673.113,2195.47,1677.415Z" transform="translate(-2062.207 -1418.639)" fill="#233862"/>
      <path id="Path_6997" data-name="Path 6997" d="M2017.725,1680.109h22.733s.85-3.626-.643-6.093c-1.321-2.183-.815-3.427.164-5.233a8.84,8.84,0,0,1-3.829.721,8.015,8.015,0,0,1-3.38-1.189c-.978,1.115-5.168,5.863-6.477,6.8C2024.807,1676.186,2018.182,1675.806,2017.725,1680.109Z" transform="translate(-1933.272 -1421.332)" fill="#233862"/>
      <path id="Path_6998" data-name="Path 6998" d="M1801.923,1169.973l-5.4-13.178a3.652,3.652,0,0,0-4.341-2.129,22.525,22.525,0,0,0-7.048-8.018,16.774,16.774,0,0,0-9.513-3.13,13.472,13.472,0,0,0-5.076,1c-7.682,3.148-11.123,12.853-8.3,22.383l-.42.172s-1.313-.091-3.515-.091c-6.957,0-22.771.924-33.867,8.63a3.064,3.064,0,0,0-.724,1.876,2.947,2.947,0,0,0,.234,1.243s17.81-11.533,34.283.318q1.519,1.087,2.948,2.02l1.478,3.606a11.779,11.779,0,0,0,15.324,6.414l15.086-6.183,3.144-1.288A10.493,10.493,0,0,0,1801.923,1169.973Zm-29.248-10.682-6.145,2.521a3.6,3.6,0,0,0-2.118,4.2l-.658.27c-2.5-8.683.55-17.439,7.408-20.251a11.575,11.575,0,0,1,2.955-.781,14.324,14.324,0,0,1,9.408,2.279,20.7,20.7,0,0,1,7.125,7.727l-.907.371a3.6,3.6,0,0,0-4.457-1.509l-6.148,2.521a3.039,3.039,0,0,0-3.956-1.659l-.851.35A3.041,3.041,0,0,0,1772.674,1159.291Z" transform="translate(-1719.995 -1040.648)" fill="#c94c43"/>
      <path id="Path_6999" data-name="Path 6999" d="M1761.176,1255.974q-1.434-.935-2.948-2.02c-16.473-11.851-34.283-.318-34.283-.318a2.947,2.947,0,0,1-.234-1.243c2.493-1.642,11.837-7.1,23.415-5.238C1760.693,1249.343,1763.147,1251.23,1761.176,1255.974Z" transform="translate(-1719.995 -1115.547)" fill="#b23b38"/>
      <path id="Path_7000" data-name="Path 7000" d="M1929.364,1183.624l-3.144,1.288c4.713-2.573-1.124-13.444-4.537-20.622s-8.578-3.9-8.578-3.9a4.105,4.105,0,0,0-3.718-2.276,2.867,2.867,0,0,0-1.9-2.783l.851-.35a3.039,3.039,0,0,1,3.956,1.659l6.148-2.521a3.6,3.6,0,0,1,4.457,1.509l.907-.371a20.7,20.7,0,0,0-7.125-7.727,14.324,14.324,0,0,0-9.408-2.279,6.678,6.678,0,0,0,1.5-1.737,16.772,16.772,0,0,1,9.512,3.13,22.524,22.524,0,0,1,7.048,8.018,3.653,3.653,0,0,1,4.341,2.129l5.4,13.178A10.493,10.493,0,0,1,1929.364,1183.624Z" transform="translate(-1853.15 -1040.648)" fill="#b23b38"/>
      <path id="Path_7001" data-name="Path 7001" d="M1957.6,1164.372c2.186.922,5.26,4.133,10.179,2.186a76.361,76.361,0,0,1,9.052-2.767c.717-.137,1.127-.239,1.127-.239l-1.947-5.67a1.062,1.062,0,0,1-.239.068c-1.264.273-7.685,1.64-10.691.956-3.381-.786-9.052,3.279-9.052,3.279S1955.412,1163.484,1957.6,1164.372Z" transform="translate(-1888.459 -1051.067)" fill="#ffb27d"/>
      <path id="Path_7002" data-name="Path 7002" d="M1717.611,1284.285c0-2.052-3.714-8.383-3.714-8.383s-3.714,6.332-3.714,8.383a3.714,3.714,0,0,0,7.428,0Z" transform="translate(-1710.183 -1136.678)" fill="#afcdfb"/>
    </g>
    <g id="Group_562" data-name="Group 562" transform="translate(684.765 290.466)">
      <path id="Path_7003" data-name="Path 7003" d="M2026.568,410.5l-5.451,1.188-.13.029a1.33,1.33,0,0,0-1.036,1.438l.492,4.633a1.379,1.379,0,0,1,.005.226,1.308,1.308,0,0,1-.869,1.145,23.248,23.248,0,0,0-7.88,4.73,1.434,1.434,0,0,1-.31.209,1.351,1.351,0,0,1-1.325-.09l-3.224-2.173a1.353,1.353,0,0,0-1.4-.048,1.463,1.463,0,0,0-.36.3l-3.671,4.357a1.359,1.359,0,0,0,.083,1.837l3.66,3.655a1.313,1.313,0,0,1,.306,1.375c-.24.7-.455,1.4-.634,2.122a23.2,23.2,0,0,0-.631,4.062v.006a1.34,1.34,0,0,1-.944,1.2l-5.018,1.554-.251.081a1.31,1.31,0,0,0-.9,1.533l1.212,5.573a1.371,1.371,0,0,0,1.478,1.067l5.156-.546a1.325,1.325,0,0,1,1.354.771,23.332,23.332,0,0,0,4,5.977,1.334,1.334,0,0,1,.118,1.642l-2.567,3.827a1.357,1.357,0,0,0,.256,1.8l4.373,3.689a1.3,1.3,0,0,0,1.754-.076l4.3-4.3a1.36,1.36,0,0,1,1.394-.328q.9.306,1.846.539a23.617,23.617,0,0,0,3.54.6,1.292,1.292,0,0,1,1.141.915l1.86,6.033a1.336,1.336,0,0,0,1.558.91l5.594-1.214a1.342,1.342,0,0,0,1.043-1.245.948.948,0,0,0-.007-.193l-.6-5.722a1.32,1.32,0,0,1,.664-1.305.705.705,0,0,1,.125-.065,4.017,4.017,0,0,0,.378-.178,23.231,23.231,0,0,0,4.263-2.543,1.288,1.288,0,0,1,1.519-.032l4.044,2.709a1.354,1.354,0,0,0,1.792-.257l.818-.968,2.845-3.385a1.337,1.337,0,0,0-.076-1.808l-3.606-3.6a1.29,1.29,0,0,1-.258-1.459,23.484,23.484,0,0,0,1.436-4.122,23.162,23.162,0,0,0,.56-3.222l1.053-.324,4.318-1.339a1.291,1.291,0,0,0,.92-1.187,1.167,1.167,0,0,0-.031-.341l-1.209-5.613a1.345,1.345,0,0,0-1.443-1.038l-3.524.38a1.332,1.332,0,0,1-1.381-.852,23.375,23.375,0,0,0-3.605-6.431,1.291,1.291,0,0,1-.066-1.547l3.245-4.836a1.285,1.285,0,0,0-.241-1.693l-4.426-3.722a1.3,1.3,0,0,0-1.767.073l-4.475,4.471a1.323,1.323,0,0,1-1.465.283,22.54,22.54,0,0,0-3.391-1.118q-.951-.236-1.9-.39a1.342,1.342,0,0,1-1.06-.916l-1.786-5.783A1.354,1.354,0,0,0,2026.568,410.5Zm-10.96,26.127a14.361,14.361,0,0,1,2.472-4.212,8.183,8.183,0,0,1,.856-.876,12.671,12.671,0,0,1,5.1-2.719c12.313-2.6,20.479,10.664,12.821,20.429-.128.159-.255.318-.389.475a12.224,12.224,0,0,1-5.7,3.439,15.563,15.563,0,0,1-2.873.364A12.538,12.538,0,0,1,2015.608,436.626Z" transform="translate(-1997.046 -410.47)" fill="#dfedfb"/>
    </g>
    <g id="Group_563" data-name="Group 563" transform="translate(745.947 309.388)">
      <path id="Path_7004" data-name="Path 7004" d="M2271.431,479.383l-8.579.775-.2.02a2.054,2.054,0,0,0-1.863,2l-.134,7.192a1.988,1.988,0,0,1-.035.347,2.019,2.019,0,0,1-1.551,1.589,35.888,35.888,0,0,0-12.979,5.736,2.215,2.215,0,0,1-.515.261,2.087,2.087,0,0,1-2.012-.392l-4.523-3.947a2.09,2.09,0,0,0-2.141-.343,2.26,2.26,0,0,0-.608.389l-6.459,5.971a2.1,2.1,0,0,0-.225,2.83l4.906,6.3a2.028,2.028,0,0,1,.2,2.166c-.5,1.02-.965,2.054-1.378,3.129a35.834,35.834,0,0,0-1.747,6.1l0,.01a2.069,2.069,0,0,1-1.677,1.66l-7.986,1.418-.4.075a2.022,2.022,0,0,0-1.667,2.177l.789,8.77a2.116,2.116,0,0,0,2.059,1.918l8,.151a2.045,2.045,0,0,1,1.926,1.44,36.034,36.034,0,0,0,4.977,9.923,2.058,2.058,0,0,1-.135,2.537l-4.667,5.372a2.1,2.1,0,0,0,.047,2.8l5.992,6.49a2,2,0,0,0,2.7.22l7.415-5.757a2.1,2.1,0,0,1,2.2-.236q1.326.641,2.726,1.18a36.417,36.417,0,0,0,5.308,1.594,1.993,1.993,0,0,1,1.572,1.621l1.694,9.6a2.062,2.062,0,0,0,2.212,1.692l8.8-.787a2.072,2.072,0,0,0,1.836-1.708,1.536,1.536,0,0,0,.027-.3l.171-8.881a2.038,2.038,0,0,1,1.267-1.872,1.072,1.072,0,0,1,.2-.075,6.25,6.25,0,0,0,.613-.2,35.833,35.833,0,0,0,7.019-3.079,1.989,1.989,0,0,1,2.332.242l5.676,4.926a2.091,2.091,0,0,0,2.794-.051l1.439-1.326,5.008-4.639a2.064,2.064,0,0,0,.23-2.785l-4.834-6.207a1.992,1.992,0,0,1-.115-2.284,36.244,36.244,0,0,0,2.989-6.039,35.794,35.794,0,0,0,1.476-4.83l1.676-.295,6.873-1.224a1.994,1.994,0,0,0,1.637-1.643,1.819,1.819,0,0,0,.017-.529l-.776-8.831a2.077,2.077,0,0,0-2.013-1.867l-5.47-.094a2.056,2.056,0,0,1-1.952-1.57,36.135,36.135,0,0,0-4.291-10.544,1.992,1.992,0,0,1,.2-2.383l5.9-6.787a1.984,1.984,0,0,0-.044-2.639l-6.067-6.551a2.007,2.007,0,0,0-2.721-.227l-7.713,5.992a2.043,2.043,0,0,1-2.3.153,34.814,34.814,0,0,0-4.979-2.364q-1.414-.544-2.842-.962a2.071,2.071,0,0,1-1.447-1.605l-1.627-9.2A2.091,2.091,0,0,0,2271.431,479.383Zm-21.8,37.925a22.174,22.174,0,0,1,4.594-5.979,12.726,12.726,0,0,1,1.48-1.178,19.568,19.568,0,0,1,8.328-3.188c19.363-1.63,29.328,20.263,15.725,33.755-.226.219-.452.438-.688.653a18.866,18.866,0,0,1-9.4,4.175,24,24,0,0,1-4.471.006A19.357,19.357,0,0,1,2249.632,517.308Z" transform="translate(-2219.845 -479.376)" fill="#cde3fd"/>
    </g>
  </g>
</svg>
