<svg xmlns="http://www.w3.org/2000/svg" width="20.081" height="18.536" viewBox="0 0 20.081 18.536">
  <g id="download-to-storage-drive" transform="translate(0 -18.27)">
    <g id="Group_1957" data-name="Group 1957" transform="translate(0 18.27)">
      <path id="Path_7015" data-name="Path 7015" d="M19.743,310.971a1.117,1.117,0,0,0-.82-.338h-5.6l-1.641,1.641a2.331,2.331,0,0,1-3.282,0L6.77,310.633H1.158a1.118,1.118,0,0,0-.821.338,1.117,1.117,0,0,0-.338.821v3.862a1.117,1.117,0,0,0,.338.821,1.117,1.117,0,0,0,.821.338H18.922a1.153,1.153,0,0,0,1.158-1.158v-3.862A1.117,1.117,0,0,0,19.743,310.971Zm-4.525,4.067a.758.758,0,1,1,.229-.543A.743.743,0,0,1,15.218,315.038Zm3.089,0a.757.757,0,1,1,.229-.543A.742.742,0,0,1,18.307,315.038Z" transform="translate(0 -298.275)" fill="#fff"/>
      <path id="Path_7016" data-name="Path 7016" d="M96.715,31.171a.758.758,0,0,0,1.086,0l5.406-5.406a.7.7,0,0,0,.169-.845.721.721,0,0,0-.712-.471H99.575V19.042a.783.783,0,0,0-.772-.772h-3.09a.783.783,0,0,0-.772.772v5.406H91.852a.722.722,0,0,0-.712.471.7.7,0,0,0,.169.845Z" transform="translate(-87.218 -18.27)" fill="#fff"/>
    </g>
  </g>
</svg>
