<svg id="button" xmlns="http://www.w3.org/2000/svg" width="19.577" height="19.577" viewBox="0 0 19.577 19.577">
  <g id="Group_3813" data-name="Group 3813">
    <g id="Group_3812" data-name="Group 3812">
      <path id="Path_7043" data-name="Path 7043" d="M156,159.824a.765.765,0,0,0,.765.765h2.294v2.294a.765.765,0,0,0,1.529,0v-2.294h2.294a.765.765,0,0,0,0-1.529h-2.294v-2.294a.765.765,0,1,0-1.529,0v2.294h-2.294A.765.765,0,0,0,156,159.824Z" transform="translate(-150.035 -150.035)" fill="#040c22"/>
      <path id="Path_7044" data-name="Path 7044" d="M133.8,14.481l.989-.41a.765.765,0,1,0-.585-1.413l-.989.41a.765.765,0,0,0,.585,1.413Z" transform="translate(-127.67 -12.118)" fill="#040c22"/>
      <path id="Path_7045" data-name="Path 7045" d="M9.789,0a.765.765,0,1,0,0,1.529A8.259,8.259,0,1,1,1.529,9.789.765.765,0,0,0,0,9.789,9.789,9.789,0,1,0,9.789,0Z" fill="#040c22"/>
      <path id="Path_7046" data-name="Path 7046" d="M60.528,61.286l.757-.757A.765.765,0,1,0,60.2,59.447l-.757.757a.765.765,0,1,0,1.082,1.082Z" transform="translate(-56.958 -56.959)" fill="#040c22"/>
      <path id="Path_7047" data-name="Path 7047" d="M13.073,135.207a.765.765,0,0,0,1-.414l.41-.989a.765.765,0,1,0-1.413-.585l-.41.989A.765.765,0,0,0,13.073,135.207Z" transform="translate(-12.119 -127.671)" fill="#040c22"/>
    </g>
  </g>
</svg>
