<svg xmlns="http://www.w3.org/2000/svg" width="21.794" height="21.794" viewBox="0 0 21.794 21.794">
  <g id="appartment" transform="translate(0 0)">
    <g id="Group_3886" data-name="Group 3886">
      <g id="Group_3885" data-name="Group 3885">
        <path id="Path_7063" data-name="Path 7063" d="M86.426,173.492h.639a.426.426,0,0,0,.426-.426v-.638a.426.426,0,0,0-.426-.426h-.639a.426.426,0,0,0-.426.426v.638A.426.426,0,0,0,86.426,173.492Z" transform="translate(-82.339 -164.681)" fill="#0f97e1"/>
        <path id="Path_7064" data-name="Path 7064" d="M86.426,233.49h.639a.426.426,0,0,0,.426-.426v-.639a.426.426,0,0,0-.426-.426h-.639a.426.426,0,0,0-.426.426v.639A.426.426,0,0,0,86.426,233.49Z" transform="translate(-82.339 -222.125)" fill="#0f97e1"/>
        <path id="Path_7065" data-name="Path 7065" d="M86.426,293.491h.639a.426.426,0,0,0,.426-.426v-.638a.426.426,0,0,0-.426-.426h-.639a.426.426,0,0,0-.426.426v.638A.426.426,0,0,0,86.426,293.491Z" transform="translate(-82.339 -279.572)" fill="#0f97e1"/>
        <path id="Path_7066" data-name="Path 7066" d="M86.426,353.489h.639a.426.426,0,0,0,.426-.426v-.638a.426.426,0,0,0-.426-.426h-.639a.426.426,0,0,0-.426.426v.638A.426.426,0,0,0,86.426,353.489Z" transform="translate(-82.339 -337.016)" fill="#0f97e1"/>
        <path id="Path_7067" data-name="Path 7067" d="M138.926,173.492h.639a.426.426,0,0,0,.426-.426v-.638a.426.426,0,0,0-.426-.426h-.639a.426.426,0,0,0-.426.426v.638A.426.426,0,0,0,138.926,173.492Z" transform="translate(-132.605 -164.681)" fill="#0f97e1"/>
        <path id="Path_7068" data-name="Path 7068" d="M138.926,233.49h.639a.426.426,0,0,0,.426-.426v-.639a.426.426,0,0,0-.426-.426h-.639a.426.426,0,0,0-.426.426v.639A.426.426,0,0,0,138.926,233.49Z" transform="translate(-132.605 -222.125)" fill="#0f97e1"/>
        <path id="Path_7069" data-name="Path 7069" d="M138.926,293.491h.639a.426.426,0,0,0,.426-.426v-.638a.426.426,0,0,0-.426-.426h-.639a.426.426,0,0,0-.426.426v.638A.426.426,0,0,0,138.926,293.491Z" transform="translate(-132.605 -279.572)" fill="#0f97e1"/>
        <path id="Path_7070" data-name="Path 7070" d="M138.926,353.489h.639a.426.426,0,0,0,.426-.426v-.638a.426.426,0,0,0-.426-.426h-.639a.426.426,0,0,0-.426.426v.638A.426.426,0,0,0,138.926,353.489Z" transform="translate(-132.605 -337.016)" fill="#0f97e1"/>
        <path id="Path_7071" data-name="Path 7071" d="M191.427,173.492h.639a.426.426,0,0,0,.426-.426v-.638a.426.426,0,0,0-.426-.426h-.639a.426.426,0,0,0-.426.426v.638A.426.426,0,0,0,191.427,173.492Z" transform="translate(-182.871 -164.681)" fill="#0f97e1"/>
        <path id="Path_7072" data-name="Path 7072" d="M191.427,233.49h.639a.426.426,0,0,0,.426-.426v-.639a.426.426,0,0,0-.426-.426h-.639a.426.426,0,0,0-.426.426v.639A.426.426,0,0,0,191.427,233.49Z" transform="translate(-182.871 -222.125)" fill="#0f97e1"/>
        <path id="Path_7073" data-name="Path 7073" d="M191.427,293.491h.639a.426.426,0,0,0,.426-.426v-.638a.426.426,0,0,0-.426-.426h-.639a.426.426,0,0,0-.426.426v.638A.426.426,0,0,0,191.427,293.491Z" transform="translate(-182.871 -279.572)" fill="#0f97e1"/>
        <path id="Path_7074" data-name="Path 7074" d="M191.427,353.489h.639a.426.426,0,0,0,.426-.426v-.638a.426.426,0,0,0-.426-.426h-.639a.426.426,0,0,0-.426.426v.638A.426.426,0,0,0,191.427,353.489Z" transform="translate(-182.871 -337.016)" fill="#0f97e1"/>
        <path id="Path_7075" data-name="Path 7075" d="M286.426,173.492h.638a.426.426,0,0,0,.426-.426v-.638a.426.426,0,0,0-.426-.426h-.638a.426.426,0,0,0-.426.426v.638A.426.426,0,0,0,286.426,173.492Z" transform="translate(-273.826 -164.681)" fill="#0f97e1"/>
        <path id="Path_7076" data-name="Path 7076" d="M286.426,113.495h.638a.426.426,0,0,0,.426-.426v-.638a.426.426,0,0,0-.426-.426h-.638a.426.426,0,0,0-.426.426v.638A.426.426,0,0,0,286.426,113.495Z" transform="translate(-273.826 -107.237)" fill="#0f97e1"/>
        <path id="Path_7077" data-name="Path 7077" d="M286.426,53.493h.638a.426.426,0,0,0,.426-.426v-.639a.426.426,0,0,0-.426-.426h-.638a.426.426,0,0,0-.426.426v.639A.426.426,0,0,0,286.426,53.493Z" transform="translate(-273.826 -49.789)" fill="#0f97e1"/>
        <path id="Path_7078" data-name="Path 7078" d="M286.426,233.49h.638a.426.426,0,0,0,.426-.426v-.639a.426.426,0,0,0-.426-.426h-.638a.426.426,0,0,0-.426.426v.639A.426.426,0,0,0,286.426,233.49Z" transform="translate(-273.826 -222.125)" fill="#0f97e1"/>
        <path id="Path_7079" data-name="Path 7079" d="M286.426,293.491h.638a.426.426,0,0,0,.426-.426v-.638a.426.426,0,0,0-.426-.426h-.638a.426.426,0,0,0-.426.426v.638A.426.426,0,0,0,286.426,293.491Z" transform="translate(-273.826 -279.572)" fill="#0f97e1"/>
        <path id="Path_7080" data-name="Path 7080" d="M286.426,353.489h.638a.426.426,0,0,0,.426-.426v-.638a.426.426,0,0,0-.426-.426h-.638a.426.426,0,0,0-.426.426v.638A.426.426,0,0,0,286.426,353.489Z" transform="translate(-273.826 -337.016)" fill="#0f97e1"/>
        <path id="Path_7081" data-name="Path 7081" d="M338.926,173.492h.638a.426.426,0,0,0,.426-.426v-.638a.426.426,0,0,0-.426-.426h-.638a.426.426,0,0,0-.426.426v.638A.426.426,0,0,0,338.926,173.492Z" transform="translate(-324.091 -164.681)" fill="#0f97e1"/>
        <path id="Path_7082" data-name="Path 7082" d="M338.926,113.495h.638a.426.426,0,0,0,.426-.426v-.638a.426.426,0,0,0-.426-.426h-.638a.426.426,0,0,0-.426.426v.638A.426.426,0,0,0,338.926,113.495Z" transform="translate(-324.091 -107.237)" fill="#0f97e1"/>
        <path id="Path_7083" data-name="Path 7083" d="M338.926,53.493h.638a.426.426,0,0,0,.426-.426v-.639a.426.426,0,0,0-.426-.426h-.638a.426.426,0,0,0-.426.426v.639A.426.426,0,0,0,338.926,53.493Z" transform="translate(-324.091 -49.789)" fill="#0f97e1"/>
        <path id="Path_7084" data-name="Path 7084" d="M338.926,233.49h.638a.426.426,0,0,0,.426-.426v-.639a.426.426,0,0,0-.426-.426h-.638a.426.426,0,0,0-.426.426v.639A.426.426,0,0,0,338.926,233.49Z" transform="translate(-324.091 -222.125)" fill="#0f97e1"/>
        <path id="Path_7085" data-name="Path 7085" d="M338.926,293.491h.638a.426.426,0,0,0,.426-.426v-.638a.426.426,0,0,0-.426-.426h-.638a.426.426,0,0,0-.426.426v.638A.426.426,0,0,0,338.926,293.491Z" transform="translate(-324.091 -279.572)" fill="#0f97e1"/>
        <path id="Path_7086" data-name="Path 7086" d="M338.926,353.489h.638a.426.426,0,0,0,.426-.426v-.638a.426.426,0,0,0-.426-.426h-.638a.426.426,0,0,0-.426.426v.638A.426.426,0,0,0,338.926,353.489Z" transform="translate(-324.091 -337.016)" fill="#0f97e1"/>
        <path id="Path_7087" data-name="Path 7087" d="M391.426,173.492h.638a.426.426,0,0,0,.426-.426v-.638a.426.426,0,0,0-.426-.426h-.638a.426.426,0,0,0-.426.426v.638A.426.426,0,0,0,391.426,173.492Z" transform="translate(-374.356 -164.681)" fill="#0f97e1"/>
        <path id="Path_7088" data-name="Path 7088" d="M391.426,113.495h.638a.426.426,0,0,0,.426-.426v-.638a.426.426,0,0,0-.426-.426h-.638a.426.426,0,0,0-.426.426v.638A.426.426,0,0,0,391.426,113.495Z" transform="translate(-374.356 -107.237)" fill="#0f97e1"/>
        <path id="Path_7089" data-name="Path 7089" d="M391.426,53.493h.638a.426.426,0,0,0,.426-.426v-.639a.426.426,0,0,0-.426-.426h-.638a.426.426,0,0,0-.426.426v.639A.426.426,0,0,0,391.426,53.493Z" transform="translate(-374.356 -49.789)" fill="#0f97e1"/>
        <path id="Path_7090" data-name="Path 7090" d="M391.426,233.49h.638a.426.426,0,0,0,.426-.426v-.639a.426.426,0,0,0-.426-.426h-.638a.426.426,0,0,0-.426.426v.639A.426.426,0,0,0,391.426,233.49Z" transform="translate(-374.356 -222.125)" fill="#0f97e1"/>
        <path id="Path_7091" data-name="Path 7091" d="M391.426,293.491h.638a.426.426,0,0,0,.426-.426v-.638a.426.426,0,0,0-.426-.426h-.638a.426.426,0,0,0-.426.426v.638A.426.426,0,0,0,391.426,293.491Z" transform="translate(-374.356 -279.572)" fill="#0f97e1"/>
        <path id="Path_7092" data-name="Path 7092" d="M391.426,353.489h.638a.426.426,0,0,0,.426-.426v-.638a.426.426,0,0,0-.426-.426h-.638a.426.426,0,0,0-.426.426v.638A.426.426,0,0,0,391.426,353.489Z" transform="translate(-374.356 -337.016)" fill="#0f97e1"/>
        <path id="Path_7093" data-name="Path 7093" d="M106.19,452a.426.426,0,0,0,0,.851h.01a.426.426,0,1,0,0-.851Z" transform="translate(-101.262 -432.763)" fill="#0f97e1"/>
        <path id="Path_7094" data-name="Path 7094" d="M306.19,452a.426.426,0,1,0,0,.851h.01a.426.426,0,1,0,0-.851Z" transform="translate(-292.749 -432.763)" fill="#0f97e1"/>
        <path id="Path_7095" data-name="Path 7095" d="M.436,492H.426a.426.426,0,0,0,0,.851h.01a.426.426,0,0,0,0-.851Z" transform="translate(0 -471.058)" fill="#0f97e1"/>
        <path id="Path_7096" data-name="Path 7096" d="M492.2,492h-.01a.426.426,0,0,0,0,.851h.01a.426.426,0,0,0,0-.851Z" transform="translate(-470.831 -471.058)" fill="#0f97e1"/>
        <path id="Path_7097" data-name="Path 7097" d="M47.869,20.944h-.3V.427A.426.426,0,0,0,47.144,0H38.631a.426.426,0,0,0-.426.426V5.62H30.118a.426.426,0,0,0-.426.426v14.9h-.3a.426.426,0,1,0,0,.851H47.869a.426.426,0,1,0,0-.851Zm-11.367,0H34.8v-1.7h1.7Zm1.7,0h-.851V18.816a.426.426,0,0,0-.426-.426H34.374a.426.426,0,0,0-.426.426v2.128H30.543v-.851h.9a.426.426,0,0,0,0-.851h-.9V6.471h7.662Zm6.811,0h-1.7v-1.7h1.7Zm1.7,0h-.851V18.816a.426.426,0,0,0-.426-.426H42.888a.426.426,0,0,0-.426.426v2.128H39.057v-.851h.9a.426.426,0,1,0,0-.851h-.9V.852h7.662Z" transform="translate(-27.734 -0.001)" fill="#0f97e1"/>
      </g>
    </g>
  </g>
</svg>
