<svg xmlns="http://www.w3.org/2000/svg" width="19.446" height="16.794" viewBox="0 0 19.446 16.794">
  <g id="briefcase" transform="translate(0 0)">
    <g id="Group_3889" data-name="Group 3889" transform="translate(0.442 9.281)">
      <g id="Group_3888" data-name="Group 3888">
        <path id="Path_7098" data-name="Path 7098" d="M29.757,279.273a.418.418,0,0,0-.442.442v5.745a.418.418,0,0,1-.442.442H12.963a.418.418,0,0,1-.442-.442v-5.745a.442.442,0,0,0-.884,0v5.745a1.3,1.3,0,0,0,1.326,1.326h15.91A1.3,1.3,0,0,0,30.2,285.46v-5.745A.418.418,0,0,0,29.757,279.273Z" transform="translate(-11.637 -279.273)" fill="#0f97e1"/>
      </g>
    </g>
    <g id="Group_3891" data-name="Group 3891" transform="translate(0 3.094)">
      <g id="Group_3890" data-name="Group 3890">
        <path id="Path_7099" data-name="Path 7099" d="M18.12,116.364H1.326A1.3,1.3,0,0,0,0,117.69v2.828A1.327,1.327,0,0,0,1.016,121.8l6.939,1.547v1.414a.418.418,0,0,0,.442.442h2.652a.418.418,0,0,0,.442-.442v-1.414l6.939-1.547a1.327,1.327,0,0,0,1.016-1.282V117.69A1.3,1.3,0,0,0,18.12,116.364Zm-7.513,7.955H8.839v-1.768h1.768Zm7.955-3.8a.43.43,0,0,1-.354.442l-6.718,1.5v-.354a.418.418,0,0,0-.442-.442H8.4a.418.418,0,0,0-.442.442v.354l-6.718-1.5a.43.43,0,0,1-.354-.442V117.69a.418.418,0,0,1,.442-.442H18.12a.418.418,0,0,1,.442.442Z" transform="translate(0 -116.364)" fill="#0f97e1"/>
      </g>
    </g>
    <g id="Group_3893" data-name="Group 3893" transform="translate(6.187 0)">
      <g id="Group_3892" data-name="Group 3892" transform="translate(0 0)">
        <path id="Path_7100" data-name="Path 7100" d="M168.654,34.909h-4.42a1.3,1.3,0,0,0-1.326,1.326v.442a.442.442,0,0,0,.884,0v-.442a.418.418,0,0,1,.442-.442h4.419a.418.418,0,0,1,.442.442v.442a.442.442,0,1,0,.884,0v-.442A1.3,1.3,0,0,0,168.654,34.909Z" transform="translate(-162.909 -34.909)" fill="#0f97e1"/>
      </g>
    </g>
  </g>
</svg>
