<svg xmlns="http://www.w3.org/2000/svg" width="21.713" height="20.017" viewBox="0 0 21.713 20.017">
  <g id="XMLID_1763_" transform="translate(0 -20)">
    <g id="XMLID_1523_" transform="translate(0 20)">
      <path id="XMLID_1600_" d="M118.729,266h-8.906A1.826,1.826,0,0,0,108,267.824v3.647a1.826,1.826,0,0,0,1.824,1.824h2.544a.424.424,0,0,0,0-.848h-2.544a.976.976,0,0,1-.975-.975v-2.587h7.506v1.008a.424.424,0,1,0,.848,0v-1.008h2.5v2.587a.976.976,0,0,1-.975.975h-2.544a.424.424,0,0,0,0,.848h2.544a1.826,1.826,0,0,0,1.824-1.824v-3.647A1.826,1.826,0,0,0,118.729,266Zm-9.881,2.036v-.212a.976.976,0,0,1,.975-.975h8.906a.976.976,0,0,1,.975.975v.212Z" transform="translate(-103.42 -255.568)" fill="#040c22"/>
      <path id="XMLID_1608_" d="M19.847,30.962V29.393a4.056,4.056,0,0,0-3.647-4.03v-.02a5.343,5.343,0,1,0-10.687,0v.02a4.056,4.056,0,0,0-3.647,4.03v1.568A2.293,2.293,0,0,0,0,33.212v2.225a2.293,2.293,0,0,0,1.881,2.253,2.612,2.612,0,0,0,2.593,2.327H17.239a2.612,2.612,0,0,0,2.593-2.327,2.293,2.293,0,0,0,1.881-2.253V33.212A2.293,2.293,0,0,0,19.847,30.962ZM6.361,27.2H7.549v.608a.594.594,0,1,1-1.187,0Zm6.955-1.857H8.4a2.46,2.46,0,1,1,4.919,0Zm.848,1.857h1.187v.608a.594.594,0,0,1-1.187,0Zm-7.8-1.857a4.5,4.5,0,0,1,8.99,0v1.009H14.164V25.343a3.308,3.308,0,1,0-6.616,0v1.009H6.361ZM.848,35.437V33.212a1.445,1.445,0,0,1,1.018-1.378v4.981A1.444,1.444,0,0,1,.848,35.437ZM19,37.408a1.762,1.762,0,0,1-1.76,1.76H4.474a1.762,1.762,0,0,1-1.76-1.76V29.393a3.206,3.206,0,0,1,2.8-3.176v1.591a1.442,1.442,0,0,0,2.884,0V26.192h4.919v1.617a1.442,1.442,0,1,0,2.884,0V26.218A3.206,3.206,0,0,1,19,29.393Zm1.866-1.972a1.444,1.444,0,0,1-1.018,1.378V31.833a1.444,1.444,0,0,1,1.018,1.378Z" transform="translate(0 -20)" fill="#040c22"/>
      <path id="XMLID_1624_" d="M230.091,192.848h1.385a.424.424,0,0,0,0-.848h-1.385a.424.424,0,0,0,0,.848Z" transform="translate(-219.927 -184.706)" fill="#040c22"/>
      <path id="XMLID_1628_" d="M246.424,418a.424.424,0,1,0,.3.124A.427.427,0,0,0,246.424,418Z" transform="translate(-235.568 -401.122)" fill="#040c22"/>
    </g>
  </g>
</svg>
