<svg xmlns="http://www.w3.org/2000/svg" width="11.164" height="11.164" viewBox="0 0 11.164 11.164">
  <g id="edit" transform="translate(0 0)" opacity="0.5">
    <path id="Path_7131" data-name="Path 7131" d="M8.838,89.538A.465.465,0,0,0,8.373,90v3.721a.466.466,0,0,1-.465.465H1.4a.466.466,0,0,1-.465-.465V87.212a.466.466,0,0,1,.465-.465H5.117a.465.465,0,0,0,0-.93H1.4a1.4,1.4,0,0,0-1.4,1.4v6.513a1.4,1.4,0,0,0,1.4,1.4H7.908a1.4,1.4,0,0,0,1.4-1.4V90a.465.465,0,0,0-.465-.465Zm0,0" transform="translate(0 -83.956)" fill="#040c22"/>
    <path id="Path_7132" data-name="Path 7132" d="M182.206,71.942a.235.235,0,0,0-.064.119l-.329,1.645a.232.232,0,0,0,.228.278.221.221,0,0,0,.046,0l1.644-.329a.231.231,0,0,0,.119-.064l3.68-3.68-1.644-1.644Zm0,0" transform="translate(-177.844 -66.784)" fill="#040c22"/>
    <path id="Path_7133" data-name="Path 7133" d="M393.734.841a1.164,1.164,0,0,0-1.644,0l-.644.644,1.644,1.644.644-.644a1.163,1.163,0,0,0,0-1.644Zm0,0" transform="translate(-382.91 -0.501)" fill="#040c22"/>
  </g>
</svg>
