<svg xmlns="http://www.w3.org/2000/svg" width="19.471" height="21.191" viewBox="0 0 19.471 21.191">
  <g id="add-user" transform="translate(0 0)">
    <g id="Group_3815" data-name="Group 3815" transform="translate(0 0)">
      <g id="Group_3814" data-name="Group 3814" transform="translate(0 0)">
        <path id="Path_7048" data-name="Path 7048" d="M10.6.5A6.124,6.124,0,0,0,7.13,11.672,10.612,10.612,0,0,0,0,21.69H1.656a8.95,8.95,0,0,1,8.94-8.94A6.126,6.126,0,0,0,10.6.5Zm0,10.6a4.47,4.47,0,1,1,4.47-4.47A4.475,4.475,0,0,1,10.6,11.094Z" transform="translate(0 -0.499)" fill="#0f97e1"/>
      </g>
    </g>
    <g id="Group_3817" data-name="Group 3817" transform="translate(10.308 15.462)">
      <rect id="Rectangle_6062" data-name="Rectangle 6062" width="9.163" height="2.291" transform="translate(0)" fill="#0f97e1"/>
      <rect id="Rectangle_6064" data-name="Rectangle 6064" width="9.163" height="2.291" transform="translate(0 3.436)" fill="#0f97e1"/>
    </g>
  </g>
</svg>
