<svg xmlns="http://www.w3.org/2000/svg" width="15.6" height="12.6" viewBox="0 0 15.6 12.6">
  <g id="Group_4030" data-name="Group 4030" transform="translate(-1409 -181)">
    <path id="Path_7217" data-name="Path 7217" d="M9.9,11.1a.487.487,0,0,1-.352-.151L6.135,7.374a.488.488,0,0,1,.352-.824H8.275V2.813A.814.814,0,0,1,9.087,2h1.625a.814.814,0,0,1,.813.813V6.55h1.788a.488.488,0,0,1,.352.824l-3.412,3.575A.487.487,0,0,1,9.9,11.1Z" transform="translate(1426.7 192.1) rotate(180)" fill="#fff"/>
    <path id="Path_7218" data-name="Path 7218" d="M14.463,20.6H1.138A1.139,1.139,0,0,1,0,19.462v-.325A1.139,1.139,0,0,1,1.138,18H14.463A1.139,1.139,0,0,1,15.6,19.138v.325A1.139,1.139,0,0,1,14.463,20.6Z" transform="translate(1424.6 211.6) rotate(180)" fill="#fff"/>
  </g>
</svg>
