<svg xmlns="http://www.w3.org/2000/svg" width="18.286" height="10.9" viewBox="0 0 18.286 10.9">
  <g id="eye_1_" data-name="eye (1)" transform="translate(0 -98.725)">
    <path id="Path_7219" data-name="Path 7219" d="M9.143,98.725c-3.494,0-6.662,1.911-9,5.016a.724.724,0,0,0,0,.864c2.338,3.108,5.506,5.02,9,5.02s6.662-1.911,9-5.016a.724.724,0,0,0,0-.864C15.8,100.636,12.637,98.725,9.143,98.725Zm.251,9.288a3.846,3.846,0,1,1,3.587-3.587A3.848,3.848,0,0,1,9.393,108.013Zm-.116-1.773a2.071,2.071,0,1,1,1.934-1.934A2.068,2.068,0,0,1,9.278,106.24Z" transform="translate(0 0)" fill="#fff"/>
  </g>
</svg>
