<svg xmlns="http://www.w3.org/2000/svg" width="21.973" height="25" viewBox="0 0 21.973 25">
  <g id="headphones" transform="translate(-31)">
    <g id="Group_4037" data-name="Group 4037" transform="translate(33.93 10.254)">
      <g id="Group_4036" data-name="Group 4036">
        <path id="Path_7221" data-name="Path 7221" d="M93.2,210a2.2,2.2,0,0,0-2.2,2.2v5.957a2.2,2.2,0,0,0,4.395,0V212.2A2.2,2.2,0,0,0,93.2,210Z" transform="translate(-91 -210)" fill="#fff"/>
      </g>
    </g>
    <g id="Group_4039" data-name="Group 4039" transform="translate(31 11.834)">
      <g id="Group_4038" data-name="Group 4038">
        <path id="Path_7222" data-name="Path 7222" d="M32.465,242.983a3.634,3.634,0,0,1,.062-.617A2.193,2.193,0,0,0,31,244.448v3.027a2.193,2.193,0,0,0,1.527,2.082,3.634,3.634,0,0,1-.062-.617Z" transform="translate(-31 -242.366)" fill="#fff"/>
      </g>
    </g>
    <g id="Group_4041" data-name="Group 4041" transform="translate(39.789 10.254)">
      <g id="Group_4040" data-name="Group 4040">
        <path id="Path_7223" data-name="Path 7223" d="M219.057,210a2.2,2.2,0,0,0-2.2,2.2v5.957a2.2,2.2,0,0,0,2.2,2.2,2.167,2.167,0,0,0,.629-.1,2.193,2.193,0,0,1-2.094,1.568H215.26a2.2,2.2,0,1,0,0,1.465h2.332a3.666,3.666,0,0,0,3.662-3.662V212.2A2.2,2.2,0,0,0,219.057,210Z" transform="translate(-211 -210)" fill="#fff"/>
      </g>
    </g>
    <g id="Group_4043" data-name="Group 4043" transform="translate(51.445 11.834)">
      <g id="Group_4042" data-name="Group 4042">
        <path id="Path_7224" data-name="Path 7224" d="M449.722,242.366a3.635,3.635,0,0,1,.062.617v5.957a3.635,3.635,0,0,1-.062.617,2.193,2.193,0,0,0,1.527-2.082v-3.027A2.193,2.193,0,0,0,449.722,242.366Z" transform="translate(-449.722 -242.366)" fill="#fff"/>
      </g>
    </g>
    <g id="Group_4045" data-name="Group 4045" transform="translate(31)">
      <g id="Group_4044" data-name="Group 4044">
        <path id="Path_7225" data-name="Path 7225" d="M41.986,0A11,11,0,0,0,31,10.986v.019a3.627,3.627,0,0,1,1.5-.68,9.51,9.51,0,0,1,18.976,0,3.628,3.628,0,0,1,1.5.68v-.019A11,11,0,0,0,41.986,0Z" transform="translate(-31)" fill="#fff"/>
      </g>
    </g>
  </g>
</svg>
