<svg xmlns="http://www.w3.org/2000/svg" width="22.473" height="21.36" viewBox="0 0 22.473 21.36">
  <g id="home" transform="translate(0 0)">
    <g id="Group_3860" data-name="Group 3860" transform="translate(0 0)">
      <path id="Path_7062" data-name="Path 7062" d="M22.1,22.165l-1.9-1.73V14.7a.661.661,0,0,0-.661-.661h-4.57a.661.661,0,0,0-.661.661v.368l-2.293-2.089a1.147,1.147,0,0,0-1.552,0L.378,22.165a1.152,1.152,0,0,0,.776,2h1.61v9.205a.661.661,0,0,0,.661.661H8.952a.661.661,0,0,0,.661-.661V27.786h3.248v5.589a.661.661,0,0,0,.661.661h5.526a.661.661,0,0,0,.661-.661V24.17h1.611a1.152,1.152,0,0,0,.776-2Zm-3.048.682a.661.661,0,0,0-.661.661v9.205h-4.2V27.125a.661.661,0,0,0-.661-.661H8.952a.661.661,0,0,0-.661.661v5.589h-4.2V23.509a.661.661,0,0,0-.661-.661H1.591l9.646-8.789,3.285,2.993a.661.661,0,0,0,1.106-.489v-1.2h3.248v5.367a.661.661,0,0,0,.216.489l1.791,1.632Z" transform="translate(0 -12.676)" fill="#040c22"/>
    </g>
  </g>
</svg>
