<svg xmlns="http://www.w3.org/2000/svg" width="16.844" height="14.037" viewBox="0 0 16.844 14.037">
  <g id="Group_4029" data-name="Group 4029" transform="translate(-1380 -181)">
    <g id="direct-download" transform="translate(1380 181)">
      <path id="Path_7217" data-name="Path 7217" d="M10.211,11.826a.526.526,0,0,1-.38-.163L6.146,7.8a.527.527,0,0,1,.38-.89h1.93V2.877A.879.879,0,0,1,9.334,2h1.755a.879.879,0,0,1,.877.877V6.913H13.9a.527.527,0,0,1,.38.89l-3.685,3.86A.526.526,0,0,1,10.211,11.826Z" transform="translate(-1.789 -2)" fill="#fff"/>
      <path id="Path_7218" data-name="Path 7218" d="M15.616,20.441H1.228A1.158,1.158,0,0,1,0,19.373v-.305A1.158,1.158,0,0,1,1.228,18H15.616a1.158,1.158,0,0,1,1.228,1.068v.305A1.158,1.158,0,0,1,15.616,20.441Z" transform="translate(0 -6.405)" fill="#fff"/>
    </g>
  </g>
</svg>
