<svg id="Group_3819" data-name="Group 3819" xmlns="http://www.w3.org/2000/svg" xmlns:xlink="http://www.w3.org/1999/xlink" width="27.023" height="18.768" viewBox="0 0 27.023 18.768">
  <defs>
    <clipPath id="clip-path">
      <path id="Path_7049" data-name="Path 7049" d="M2199.391-7127.213a2.126,2.126,0,0,1,1.518.352c.64.5,5.834-1.559,5.834-1.559l11.189.339h1.541l2.656-.339s.087,3.5,0,3.657,0,7.835,0,7.835-21.375-1.594-21.375,0-5.609-5.609-5.609-5.609v-2.707l3.268-2.836Z" transform="translate(-2195.144 7128.42)" fill="none" stroke="#707070" stroke-width="1"/>
    </clipPath>
  </defs>
  <g id="Mask_Group_25" data-name="Mask Group 25" transform="translate(0 7.046)" clip-path="url(#clip-path)">
    <path id="shipping" d="M21.724,28.539V17.815a.693.693,0,0,0-.693-.693H2.47a.693.693,0,0,0-.693.693V29.394A2.08,2.08,0,0,0,.464,32.771l3.12,3.783c1.932,2.261,3.983,2.538,7.034,2.538a22.717,22.717,0,0,0,6.069-.508l2.221-.531a1.939,1.939,0,0,0,1.575.829h1.094A2.029,2.029,0,0,0,23.55,36.8V30.61A2.038,2.038,0,0,0,21.724,28.539ZM18.61,29.964l-.923-.469a5.488,5.488,0,0,0-4.814-.078,6.619,6.619,0,0,1-1.814.7h-3.2a1.929,1.929,0,0,0-1.927,1.927v.505l-.018-.019L3.624,30.05a2.11,2.11,0,0,0-.461-.377V22.8H8.832v2.54a.693.693,0,0,0,.693.693H13.9a.693.693,0,0,0,.693-.693V22.8h5.749v5.739a2,2,0,0,0-1.728,1.425ZM10.218,22.8H13.2v1.847H10.218Zm10.121-1.386H14.589V18.508h5.749v2.907ZM13.2,18.508v2.907H10.218V18.508Zm-4.372,0v2.907H3.163V18.508Zm7.534,18.728a22.04,22.04,0,0,1-5.723.463c-2.863,0-4.247-.046-5.99-2.026l-3.12-3.783a.7.7,0,0,1,1.072-.9l2.287,2.483a3.145,3.145,0,0,0,2.3,1.01h6.342a.693.693,0,1,0,0-1.386H7.315V32.046a.542.542,0,0,1,.541-.541h3.2a6.342,6.342,0,0,0,2.4-.831,4.11,4.11,0,0,1,3.6.057l1.451.737v5.254Zm5.8-.432a.646.646,0,0,1-.586.692H20.484A.646.646,0,0,1,19.9,36.8V30.61a.646.646,0,0,1,.586-.692h1.094a.646.646,0,0,1,.586.692Z" transform="translate(2.488 -28.187)" fill="#040c22"/>
  </g>
  <g id="Group_3818" data-name="Group 3818" transform="translate(5.562 0)">
    <rect id="Rectangle_6062" data-name="Rectangle 6062" width="12.599" height="2.291" transform="translate(0)" fill="#040c22"/>
    <rect id="Rectangle_6064" data-name="Rectangle 6064" width="12.599" height="2.291" transform="translate(0 3.436)" fill="#040c22"/>
  </g>
</svg>
