<svg xmlns="http://www.w3.org/2000/svg" width="19" height="20.584" viewBox="0 0 19 20.584">
  <g id="power-button-off" transform="translate(-18.275)">
    <g id="Group_1889" data-name="Group 1889" transform="translate(18.275)">
      <path id="Path_6299" data-name="Path 6299" d="M202.633,11.441a1.657,1.657,0,0,0,1.635-1.634V1.635a1.57,1.57,0,0,0-.485-1.149,1.6,1.6,0,0,0-2.3,0A1.57,1.57,0,0,0,201,1.635V9.807a1.657,1.657,0,0,0,1.635,1.634Z" transform="translate(-193.132)" fill="#0cacdb"/>
      <path id="Path_6300" data-name="Path 6300" d="M36.28,76.949a9.278,9.278,0,0,0-2.8-3.32,1.543,1.543,0,0,0-1.175-.307,1.468,1.468,0,0,0-1.039.615,1.49,1.49,0,0,0-.3,1.162,1.528,1.528,0,0,0,.612,1.039,6.288,6.288,0,0,1,1.874,2.226,6.238,6.238,0,0,1,.161,5.245,6.254,6.254,0,0,1-3.377,3.357,6.3,6.3,0,0,1-4.911,0,6.253,6.253,0,0,1-3.377-3.357,6.236,6.236,0,0,1,.161-5.245,6.29,6.29,0,0,1,1.874-2.226A1.53,1.53,0,0,0,24.59,75.1a1.49,1.49,0,0,0-.3-1.162,1.463,1.463,0,0,0-1.033-.615,1.571,1.571,0,0,0-1.181.307,9.335,9.335,0,0,0-3.8,7.538,9.143,9.143,0,0,0,.755,3.665,9.358,9.358,0,0,0,5.059,5.029,9.427,9.427,0,0,0,7.372,0,9.355,9.355,0,0,0,5.059-5.029,9.142,9.142,0,0,0,.754-3.665A9.257,9.257,0,0,0,36.28,76.949Z" transform="translate(-18.275 -70.027)" fill="#0cacdb"/>
    </g>
  </g>
</svg>
