<svg xmlns="http://www.w3.org/2000/svg" width="16.788" height="18.314" viewBox="0 0 16.788 18.314">
  <g id="notification" transform="translate(0.001)">
    <path id="Path_7227" data-name="Path 7227" d="M137.769,450.289a2.866,2.866,0,0,0,2.8-2.289h-5.607A2.866,2.866,0,0,0,137.769,450.289Zm0,0" transform="translate(-130.138 -431.975)" fill="#fff"/>
    <path id="Path_7228" data-name="Path 7228" d="M12.981,50.3h-.009A5.348,5.348,0,0,1,7.63,44.957a5.294,5.294,0,0,1,.511-2.263c-.168-.016-.338-.026-.511-.026a5.342,5.342,0,0,0-5.342,5.342v2.127A5.117,5.117,0,0,1,.466,54.054a1.335,1.335,0,0,0-.42,1.371,1.4,1.4,0,0,0,1.372.979H13.838a1.4,1.4,0,0,0,1.395-1.058,1.338,1.338,0,0,0-.456-1.306,5.078,5.078,0,0,1-1.8-3.741Zm0,0" transform="translate(0 -41.141)" fill="#fff"/>
    <path id="Path_7229" data-name="Path 7229" d="M263.643,3.816A3.815,3.815,0,1,1,259.827,0,3.815,3.815,0,0,1,263.643,3.816Zm0,0" transform="translate(-246.855)" fill="#fff"/>
  </g>
</svg>
