<svg xmlns="http://www.w3.org/2000/svg" width="17.87" height="21.79" viewBox="0 0 17.87 21.79">
  <g id="bin" transform="translate(0.415 0.402)" fill="#040C22">
    <path id="Path_7316" data-name="Path 7316" d="M222.89,154.7a.492.492,0,0,0-.492.492v9.29a.492.492,0,1,0,.983,0v-9.29A.492.492,0,0,0,222.89,154.7Zm0,0" transform="translate(-211.469 -147.1)" stroke="#fff" stroke-width="0.8"/>
    <path id="Path_7317" data-name="Path 7317" d="M104.89,154.7a.492.492,0,0,0-.492.492v9.29a.492.492,0,1,0,.983,0v-9.29A.492.492,0,0,0,104.89,154.7Zm0,0" transform="translate(-99.269 -147.1)" stroke="#fff" stroke-width="0.8"/>
    <path id="Path_7318" data-name="Path 7318" d="M1.393,6.247V18.358a2.712,2.712,0,0,0,.721,1.87,2.421,2.421,0,0,0,1.756.759h9.3a2.42,2.42,0,0,0,1.756-.759,2.712,2.712,0,0,0,.721-1.87V6.247a1.878,1.878,0,0,0-.482-3.693H12.65V1.94A1.931,1.931,0,0,0,10.7,0H6.338A1.931,1.931,0,0,0,4.391,1.94v.614H1.875a1.878,1.878,0,0,0-.482,3.693ZM13.171,20.005H3.87a1.557,1.557,0,0,1-1.494-1.647V6.291H14.665V18.358a1.557,1.557,0,0,1-1.494,1.647ZM5.374,1.94A.947.947,0,0,1,6.338.982H10.7a.947.947,0,0,1,.964.959v.614H5.374Zm-3.5,1.6H15.166a.885.885,0,0,1,0,1.77H1.875a.885.885,0,1,1,0-1.77Zm0,0" transform="translate(0 0)" stroke="#fff" stroke-width="0.8"/>
    <path id="Path_7319" data-name="Path 7319" d="M163.89,154.7a.492.492,0,0,0-.492.492v9.29a.492.492,0,1,0,.983,0v-9.29A.492.492,0,0,0,163.89,154.7Zm0,0" transform="translate(-155.369 -147.1)" stroke="#fff" stroke-width="0.8"/>
  </g>
</svg>
