<svg xmlns="http://www.w3.org/2000/svg" width="19.471" height="19.471" viewBox="0 0 19.471 19.471">
  <g id="share" transform="translate(0 0)">
    <path id="Path_7101" data-name="Path 7101" d="M15.719,3.989a3.745,3.745,0,0,0-2.841,1.3L9.427,3.376a2.759,2.759,0,1,0-.739,1.329l3.449,1.916a3.754,3.754,0,0,0,.073,2.451L8.294,11.564a4.733,4.733,0,1,0,.818,1.282l3.916-2.492a3.751,3.751,0,1,0,2.69-6.365Zm-8.975,0A1.234,1.234,0,1,1,7.978,2.755,1.235,1.235,0,0,1,6.744,3.989ZM4.749,17.95a3.228,3.228,0,1,1,3.228-3.228A3.232,3.232,0,0,1,4.749,17.95ZM15.719,9.972A2.231,2.231,0,1,1,17.95,7.741a2.234,2.234,0,0,1-2.231,2.231Z" transform="translate(0 0)" fill="#0f97e1"/>
  </g>
</svg>
