<svg id="loupe" xmlns="http://www.w3.org/2000/svg" width="15.532" height="15.591" viewBox="0 0 15.532 15.591">
  <g id="Group_1952" data-name="Group 1952">
    <path id="Path_6297" data-name="Path 6297" d="M15.967,12.286,13.4,9.72a7.079,7.079,0,0,0,.778-3.11,6.609,6.609,0,1,0-6.609,6.609,7.079,7.079,0,0,0,3.11-.778l2.566,2.566a1.879,1.879,0,0,0,2.722,0A2.026,2.026,0,0,0,15.967,12.286Zm-8.4-.622a5.054,5.054,0,1,1,5.054-5.054A5.044,5.044,0,0,1,7.569,11.664Z" transform="translate(-0.96)" fill="#0cacdb"/>
  </g>
</svg>
