<svg xmlns="http://www.w3.org/2000/svg" width="36" height="36" viewBox="0 0 36 36">
  <g id="Group_4067" data-name="Group 4067" transform="translate(-170 -16.787)">
    <path id="Intersection_4" data-name="Intersection 4" d="M0,20.373A14.086,14.086,0,0,1,5.918,14.4a9.092,9.092,0,0,0,12.9,0,14.092,14.092,0,0,1,5.963,6.058A16.357,16.357,0,0,1,0,20.373Zm7.1-6.529c-.161-.144-.315-.292-.464-.448s-.292-.316-.427-.483a7.914,7.914,0,1,1,12.312,0c-.136.168-.28.327-.427.483s-.3.3-.464.448a7.85,7.85,0,0,1-10.53,0Z" transform="translate(175.726 25.772)" fill="#fff"/>
    <g id="Ellipse_1" data-name="Ellipse 1" transform="translate(170 16.787)" fill="none" stroke="#fff" stroke-width="2">
      <circle cx="18" cy="18" r="18" stroke="none"/>
      <circle cx="18" cy="18" r="17" fill="none"/>
    </g>
  </g>
</svg>
